<svg xmlns="http://www.w3.org/2000/svg" xmlns:xlink="http://www.w3.org/1999/xlink" fill="none" version="1.1" width="140" height="127.594970703125" viewBox="0 0 140 127.594970703125"><g><g><g><g><g><path d="M94.316,46.034650802612305C84.3801,46.034650802612305,74.2659,45.6300508026123,64.8049,42.9878508026123C55.5217,40.40505080261231,46.9985,35.3945508026123,39.401,29.598770802612304C34.4271,25.825940802612305,29.9043,22.814892802612306,23.4464,23.267243202612306C17.1288,23.609910802612305,11.0873,25.975110802612306,6.2099,30.015330802612304C-2.00485,37.227550802612306,-0.770115,50.5927508026123,2.51813,59.947350802612306C7.45638,74.0744508026123,22.4851,83.9169508026123,35.2583,90.2840508026123C50.0139,97.67475080261231,66.2296,101.9712508026123,82.4809,104.4348508026123C96.726,106.61275080261231,115.031,108.1838508026123,127.377,98.8650508026123C138.713,90.2842508026123,141.824,70.71815080261231,139.046,57.507650802612304C138.371,53.605050802612304,136.299,50.083650802612304,133.217,47.605550802612306C125.252,41.761950802612304,113.369,45.665650802612305,104.418,45.855950802612305C101.095,45.9275508026123,97.7111,46.0108508026123,94.316,46.034650802612305Z" fill="#313131" fill-opacity="1" style="mix-blend-mode:passthrough"/></g><g><path d="M114.05749906921386,124.86956978027344Q114.05749906921386,124.93646978027344,114.00499906921387,125.00328978027343Q113.95249906921387,125.07011978027344,113.84759906921387,125.13669978027343Q113.74279906921387,125.20328978027344,113.58579906921386,125.26946978027344Q113.42879906921387,125.33564978027344,113.22009906921387,125.40126978027344Q113.01139906921387,125.46688978027343,112.75149906921386,125.53178978027344Q112.49159906921386,125.59668978027344,112.18099906921387,125.66070978027344Q111.87049906921386,125.72473978027344,111.51009906921387,125.78772978027344Q111.14969906921387,125.85071978027344,110.74029906921386,125.91253978027343Q110.33089906921387,125.97434978027344,109.87349906921386,126.03482978027344Q109.41609906921387,126.09530978027344,108.91179906921387,126.15431978027344Q108.40749906921387,126.21331978027344,107.85749906921387,126.27070978027344Q107.30759906921386,126.32808978027344,106.71319906921387,126.38371978027344Q106.11889906921387,126.43934978027343,105.48159906921387,126.49308978027344Q104.84429906921386,126.54682978027344,104.16569906921387,126.59854978027343Q103.48699906921387,126.65026978027343,102.76859906921386,126.69983978027344Q102.05019906921386,126.74941978027344,101.29369906921387,126.79671978027343Q100.53729906921387,126.84402978027344,99.74459906921386,126.88895978027344Q98.95189906921387,126.93388978027343,98.12499906921387,126.97633978027343Q97.29799906921387,127.01877978027343,96.43879906921387,127.05863978027344Q95.57949906921387,127.09848978027344,94.68999906921387,127.13565978027344Q93.80049906921387,127.17283978027343,92.88289906921386,127.20722978027344Q91.96529906921387,127.24162978027344,91.02189906921387,127.27316978027343Q90.07839906921387,127.30470978027344,89.11129906921386,127.33330978027344Q88.14429906921387,127.36191978027344,87.15589906921386,127.38751978027344Q86.16759906921386,127.41311978027343,85.16029906921386,127.43565978027344Q84.15309906921387,127.45819978027343,83.12929906921386,127.47761978027344Q82.10559906921387,127.49704978027344,81.06789906921387,127.51329978027344Q80.03019906921386,127.52955978027344,78.98089906921388,127.54260978027344Q77.93169906921386,127.55565978027343,76.87349906921386,127.56547978027344Q75.81529906921386,127.57529978027344,74.75069906921387,127.58185978027343Q73.68599906921386,127.58840978027344,72.61749906921386,127.59169978027344Q71.54899906921386,127.59497978027343,70.47919906921388,127.59497978027343Q69.40949906921387,127.59497978027343,68.34099906921386,127.59169978027344Q67.27249906921386,127.58840978027344,66.20779906921388,127.58185978027343Q65.14319906921386,127.57529978027344,64.08499906921386,127.56547978027344Q63.026799069213865,127.55565978027343,61.97749906921387,127.54260978027344Q60.928299069213864,127.52955978027344,59.89059906921387,127.51329978027344Q58.85289906921386,127.49704978027344,57.82909906921387,127.47761978027344Q56.80539906921386,127.45819978027343,55.798199069213865,127.43565978027344Q54.790899069213864,127.41311978027343,53.80259906921387,127.38751978027344Q52.81419906921387,127.36191978027344,51.84709906921387,127.33330978027344Q50.88009906921387,127.30470978027344,49.93659906921387,127.27316978027343Q48.99309906921387,127.24162978027344,48.07549906921386,127.20722978027344Q47.15799906921387,127.17283978027343,46.26849906921387,127.13565978027344Q45.37899906921387,127.09848978027344,44.51969906921387,127.05863978027344Q43.66049906921387,127.01877978027343,42.833499069213865,126.97633978027343Q42.00649906921387,126.93388978027343,41.213899069213866,126.88895978027344Q40.42119906921387,126.84402978027344,39.66479906921387,126.79671978027343Q38.90829906921387,126.74941978027344,38.189899069213865,126.69983978027344Q37.47149906921386,126.65026978027343,36.79279906921387,126.59854978027343Q36.11413906921386,126.54682978027344,35.47686906921387,126.49308978027344Q34.83959906921387,126.43934978027343,34.245259069213866,126.38371978027344Q33.65091906921387,126.32808978027344,33.100939069213865,126.27070978027344Q32.55095906921387,126.21331978027344,32.04665906921387,126.15431978027344Q31.54236906921387,126.09530978027344,31.084979069213865,126.03482978027344Q30.627579069213866,125.97434978027344,30.218199069213867,125.91253978027343Q29.80880906921387,125.85071978027344,29.448409069213866,125.78772978027344Q29.088009069213868,125.72473978027344,28.77745906921387,125.66070978027344Q28.466919069213866,125.59668978027344,28.20698906921387,125.53178978027344Q27.947049069213868,125.46688978027343,27.73834306921387,125.40126978027344Q27.529638069213867,125.33564978027344,27.372668069213866,125.26946978027344Q27.215697069213867,125.20328978027344,27.110840069213868,125.13669978027343Q27.00598306921387,125.07011978027344,26.953490969213867,125.00328978027343Q26.900999069213867,124.93646978027344,26.900999069213867,124.86956978027344Q26.900999069213867,124.80265978027344,26.953490969213867,124.73583978027344Q27.00598306921387,124.66900978027344,27.110840069213868,124.60242978027344Q27.215697069213867,124.53583978027343,27.372668069213866,124.46965978027343Q27.529638069213867,124.40347978027344,27.73834306921387,124.33785978027343Q27.947049069213868,124.27223978027344,28.20698906921387,124.20733978027344Q28.466919069213866,124.14243978027343,28.77745906921387,124.07841978027344Q29.088009069213868,124.01438978027343,29.448409069213866,123.95139978027343Q29.80880906921387,123.88840978027343,30.218199069213867,123.82658978027344Q30.627579069213866,123.76477978027344,31.084979069213865,123.70429978027343Q31.54236906921387,123.64381978027343,32.04665906921387,123.58480978027343Q32.55095906921387,123.52580978027343,33.100939069213865,123.46841978027344Q33.65091906921387,123.41103978027344,34.245259069213866,123.35540978027343Q34.83959906921387,123.29977978027344,35.47686906921387,123.24603978027343Q36.11413906921386,123.19229978027344,36.79279906921387,123.14057978027344Q37.47149906921386,123.08886178027343,38.189899069213865,123.03928778027344Q38.90829906921387,122.98971478027343,39.66479906921387,122.94240578027343Q40.42119906921387,122.89509578027344,41.213899069213866,122.85016578027344Q42.00649906921387,122.80523478027344,42.833499069213865,122.76279078027343Q43.66049906921387,122.72034678027343,44.51969906921387,122.68049078027343Q45.37899906921387,122.64063578027344,46.26849906921387,122.60346478027344Q47.15799906921387,122.56629478027344,48.07549906921386,122.53189878027344Q48.99309906921387,122.49750178027344,49.93659906921387,122.46596378027344Q50.88009906921387,122.43442478027343,51.84709906921387,122.40581878027344Q52.81419906921387,122.37721278027344,53.80259906921387,122.35160978027344Q54.790899069213864,122.32600578027343,55.798199069213865,122.30346678027344Q56.80539906921386,122.28092678027343,57.82909906921387,122.26150478027344Q58.85289906921386,122.24208368027344,59.89059906921387,122.22582708027343Q60.928299069213864,122.20957038027343,61.97749906921387,122.19651788027343Q63.026799069213865,122.18346528027344,64.08499906921386,122.17364828027344Q65.14319906921386,122.16383128027344,66.20779906921388,122.15727338027344Q67.27249906921386,122.15071554027344,68.34099906921386,122.14743266027344Q69.40949906921387,122.14414978027344,70.47919906921388,122.14414978027344Q71.54899906921386,122.14414978027344,72.61749906921386,122.14743266027344Q73.68599906921386,122.15071554027344,74.75069906921387,122.15727338027344Q75.81529906921386,122.16383128027344,76.87349906921386,122.17364828027344Q77.93169906921386,122.18346528027344,78.98089906921388,122.19651788027343Q80.03019906921386,122.20957038027343,81.06789906921387,122.22582708027343Q82.10559906921387,122.24208368027344,83.12929906921386,122.26150478027344Q84.15309906921387,122.28092678027343,85.16029906921386,122.30346678027344Q86.16759906921386,122.32600578027343,87.15589906921386,122.35160978027344Q88.14429906921387,122.37721278027344,89.11129906921386,122.40581878027344Q90.07839906921387,122.43442478027343,91.02189906921387,122.46596378027344Q91.96529906921387,122.49750178027344,92.88289906921386,122.53189878027344Q93.80049906921387,122.56629478027344,94.68999906921387,122.60346478027344Q95.57949906921387,122.64063578027344,96.43879906921387,122.68049078027343Q97.29799906921387,122.72034578027343,98.12499906921387,122.76279078027343Q98.95189906921387,122.80523478027344,99.74459906921386,122.85016578027344Q100.53729906921387,122.89509578027344,101.29369906921387,122.94240578027343Q102.05019906921386,122.98971478027343,102.76859906921386,123.03928778027344Q103.48699906921387,123.08886178027343,104.16569906921387,123.14057978027344Q104.84439906921386,123.19229978027344,105.48159906921387,123.24603978027343Q106.11889906921387,123.29977978027344,106.71319906921387,123.35540978027343Q107.30759906921386,123.41103978027344,107.85749906921387,123.46841978027344Q108.40749906921387,123.52580978027343,108.91179906921387,123.58480978027343Q109.41609906921387,123.64381978027343,109.87349906921386,123.70429978027343Q110.33089906921387,123.76477978027344,110.74029906921386,123.82658978027344Q111.14969906921387,123.88840978027343,111.51009906921387,123.95139978027343Q111.87049906921386,124.01438978027343,112.18099906921387,124.07841978027344Q112.49159906921386,124.14243978027343,112.75149906921386,124.20733978027344Q113.01139906921387,124.27223978027344,113.22009906921387,124.33785978027343Q113.42879906921387,124.40347978027344,113.58579906921386,124.46965978027343Q113.74279906921387,124.53583978027343,113.84759906921387,124.60242978027344Q113.95249906921387,124.66900978027344,114.00499906921387,124.73583978027344Q114.05749906921386,124.80265978027344,114.05749906921386,124.86956978027344Z" fill="#313131" fill-opacity="1" style="mix-blend-mode:passthrough"/></g><g><path d="M53.25637770996094,92.82745961608887L112.49277770996093,87.78115961608887Q112.58477770996093,87.77325961608886,112.67477770996094,87.74835961608886Q112.76477770996094,87.72345961608887,112.84777770996094,87.68235961608887Q112.93177770996094,87.64135961608886,113.00677770996094,87.58555961608887Q113.08077770996094,87.52975961608887,113.14377770996094,87.46125961608887Q113.20677770996093,87.39265961608886,113.25577770996094,87.31355961608887Q113.30577770996094,87.23455961608887,113.33977770996094,87.14775961608886Q113.37277770996094,87.06095961608887,113.39077770996094,86.96945961608887Q113.40777770996094,86.87795961608887,113.40777770996094,86.78475961608886Q113.40777770996094,86.68625961608886,113.38777770996094,86.58965961608887Q113.36877770996094,86.49305961608887,113.33177770996093,86.40205961608886Q113.29377770996093,86.31105961608887,113.23877770996094,86.22915961608886Q113.18377770996094,86.14725961608887,113.11477770996093,86.07765961608887Q113.04477770996094,86.00805961608887,112.96277770996093,85.95325961608887Q112.88077770996094,85.89855961608886,112.78977770996094,85.86085961608887Q112.69877770996094,85.82315961608887,112.60277770996093,85.80395961608886Q112.50577770996094,85.78475961608886,112.40777770996094,85.78475961608886Q112.36477770996093,85.78475961608886,112.32277770996093,85.78835961608887L112.32177770996094,85.78845961608887L53.08667770996094,90.83465961608887Q51.037577709960935,90.99945961608887,49.191077709960936,90.08285961608887Q47.343677709960936,89.16625961608887,46.22877770996094,87.42765961608886Q45.113377709960936,85.68835961608886,45.047877709960936,83.62195961608887Q44.982377709960936,81.55565961608886,45.98547770996094,79.74875961608888L48.88127770996094,74.54895961608887Q48.979577709960935,74.37235961608886,49.00157770996094,74.17145961608887Q49.023677709960936,73.97045961608887,48.965877709960935,73.77675961608887L34.17467770996094,24.147939616088866Q33.19797770996094,20.940569616088865,30.429877709960937,19.067928616088867Q27.660577709960936,17.19431961608887,24.332477709960937,17.486640616088867L8.903242409960937,18.795639616088867Q8.810422709960937,18.803513616088868,8.720654709960938,18.828397616088868Q8.630886709960938,18.853280616088867,8.547258709960937,18.89431661608887Q8.463631709960937,18.935351616088866,8.389022709960937,18.991127616088868Q8.314412709960937,19.046903616088866,8.251389709960938,19.115500616088866Q8.188365709960937,19.184097616088867,8.139096709960938,19.26315461608887Q8.089827709960938,19.342211616088868,8.056008709960938,19.42900861608887Q8.022188709960938,19.515809616088866,8.004983709960937,19.607359616088868Q7.9877777099609375,19.698909616088866,7.9877777099609375,19.792059616088867Q7.9877777099609375,19.89054961608887,8.006992709960937,19.987149616088868Q8.026207709960937,20.083749616088866,8.063898709960938,20.174739616088868Q8.101589709960937,20.26573961608887,8.156307709960938,20.347629616088867Q8.211026709960937,20.429519616088868,8.280670709960937,20.499169616088867Q8.350314709960937,20.568809616088867,8.432207709960938,20.623529616088867Q8.514099709960938,20.678249616088866,8.605094709960937,20.715939616088868Q8.696088709960938,20.753629616088865,8.792687709960937,20.772849616088866Q8.889286309960937,20.792059616088867,8.987777709960938,20.792059616088867Q9.030121109960938,20.792059616088867,9.072313009960938,20.788479616088868L24.507477709960938,19.478969616088868Q27.128077709960937,19.248791616088866,29.309277709960938,20.724469616088868Q31.490977709960937,22.200419616088865,32.25797770996094,24.71918961608887L46.928877709960936,73.94405961608886L44.23677770996094,78.77805961608887Q42.965877709960935,81.06755961608886,43.04887770996094,83.68535961608887Q43.13187770996094,86.30335961608887,44.545277709960935,88.50735961608886Q45.95897770996094,90.71185961608887,48.30177770996094,91.87425961608886Q50.64507770996094,93.03745961608887,53.25637770996094,92.82745961608887Z" fill-rule="evenodd" fill="#893AF6" fill-opacity="1" style="mix-blend-mode:passthrough"/></g><g><path d="M35.42437744140625,31.967209176025392L104.27587744140625,26.11181267602539C104.95367744140626,26.05362377602539,105.63637744140625,26.14922047602539,106.27247744140625,26.39144317602539C106.91007744140624,26.63366617602539,107.48327744140624,27.01651417602539,107.95227744140625,27.51157917602539C108.41997744140625,28.00664917602539,108.77267744140624,28.60100917602539,108.98037744140625,29.25078917602539C109.18807744140625,29.900569176025392,109.24867744140624,30.58890917602539,109.15497744140625,31.26500917602539L104.48967744140624,65.02924917602539C104.34847744140625,66.0422491760254,103.87007744140625,66.9781491760254,103.13397744140624,67.68604917602539C102.39787744140625,68.3942491760254,101.44487744140625,68.83324917602539,100.42977744140624,68.93294917602539L48.00757744140625,74.06244917602538L35.42437744140625,31.967209176025392Z" fill="#313131" fill-opacity="1" style="mix-blend-mode:passthrough"/><path d="M34.46626744140625,32.25360917602539L47.04947744140625,74.3488491760254Q47.07417744140625,74.43154917602538,47.11277744140625,74.50874917602539Q47.15127744140625,74.5860491760254,47.20247744140625,74.65554917602539Q47.25367744140625,74.7250491760254,47.31607744140625,74.7847491760254Q47.37837744140625,74.84444917602539,47.45007744140625,74.8925491760254Q47.52177744140625,74.94074917602539,47.60057744140625,74.97584917602539Q47.67947744140625,75.01094917602539,47.76317744140625,75.0320491760254Q47.84687744140625,75.05314917602539,47.93297744140625,75.05964917602539Q48.01907744140625,75.06604917602539,48.10497744140625,75.0576491760254L100.52757744140625,69.92814917602539Q102.44137744140625,69.7401491760254,103.82717744140625,68.40684917602539Q105.21457744140625,67.0724491760254,105.48027744140624,65.16614917602539L110.14547744140626,31.40233917602539Q110.31867744140625,30.15299917602539,109.93287744140625,28.94626917602539Q109.54897744140625,27.74538917602539,108.67827744140625,26.823899176025392Q107.80787744140625,25.90505317602539,106.62837744140624,25.45689917602539Q105.44817744140624,25.00749917602539,104.19117744140625,25.11540917602539L35.33963954140625,30.97079917602539Q35.23683244140625,30.97954917602539,35.13797644140625,31.00909917602539Q34.94739644140625,31.06606917602539,34.79312444140625,31.19162917602539Q34.63885244140625,31.31718917602539,34.54437544140625,31.49223917602539Q34.44989844140625,31.66727917602539,34.42959844140625,31.86514917602539Q34.40929744140625,32.06302917602539,34.46626744140625,32.25360917602539ZM48.72987744140625,72.98694917602539L100.33197744140625,67.93774917602539Q101.55497744140625,67.81754917602538,102.44077744140625,66.9653491760254Q103.32927744140625,66.1108491760254,103.49907744140626,64.89234917602539L108.16447744140625,31.12768917602539Q108.27517744140626,30.32885917602539,108.02787744140625,29.55530917602539Q107.78257744140625,28.78806917602539,107.22627744140625,28.19926917602539Q106.67027744140626,27.61230917602539,105.91667744140625,27.32598917602539Q105.16367744140625,27.03927617602539,104.36067744140625,27.10821917602539L36.73478744140625,32.85936917602539L48.72987744140625,72.98694917602539Z" fill-rule="evenodd" fill="#893AF6" fill-opacity="1" style="mix-blend-mode:passthrough"/></g><g><path d="M65.35098291625977,97.603352734375Q65.35098291625977,97.740962734375,65.34428291625977,97.878402734375Q65.33748291625977,98.015842734375,65.32408291625977,98.152792734375Q65.31058291625976,98.289742734375,65.29048291625976,98.425852734375Q65.27028291625976,98.561972734375,65.24358291625977,98.696942734375Q65.21678291625976,98.831902734375,65.18338291625976,98.965392734375Q65.15008291625976,99.09887273437499,65.11018291625976,99.230552734375Q65.07038291625976,99.362242734375,65.02418291625976,99.491802734375Q64.97788291625977,99.621372734375,64.92538291625976,99.748502734375Q64.87288291625977,99.875632734375,64.81418291625977,100.000032734375Q64.75548291625977,100.124432734375,64.69078291625976,100.245792734375Q64.62608291625976,100.367152734375,64.55548291625976,100.485182734375Q64.48498291625977,100.603212734375,64.40868291625976,100.717632734375Q64.33248291625976,100.832042734375,64.25068291625976,100.942572734375Q64.16888291625976,101.053102734375,64.08184291625976,101.159472734375Q63.994762916259766,101.265852734375,63.90259291625976,101.36781273437501Q63.810412916259764,101.469772734375,63.71336291625977,101.567072734375Q63.61630291625977,101.66437273437501,63.51460291625976,101.756792734375Q63.41290291625977,101.849202734375,63.30680291625977,101.936502734375Q63.200702916259765,102.023802734375,63.09046291625977,102.105802734375Q62.98021291625977,102.187702734375,62.866082916259764,102.264202734375Q62.751962916259764,102.340602734375,62.63423291625976,102.411402734375Q62.516512916259764,102.482102734375,62.39546291625977,102.547002734375Q62.27441291625976,102.61190273437501,62.150332916259764,102.670702734375Q62.026252916259764,102.729502734375,61.899442916259765,102.782202734375Q61.77263291625977,102.83490273437499,61.64340291625977,102.881202734375Q61.51417291625977,102.927602734375,61.38282291625977,102.967502734375Q61.25148291625977,103.007502734375,61.11833291625977,103.040902734375Q60.98519291625976,103.074302734375,60.850572916259765,103.101202734375Q60.715952916259766,103.128002734375,60.580182916259766,103.148202734375Q60.444412916259765,103.16840273437501,60.30782291625977,103.181902734375Q60.171222916259765,103.195402734375,60.034132916259765,103.202102734375Q59.897042916259764,103.208902734375,59.759782916259766,103.208902734375Q59.622532916259765,103.208902734375,59.48543291625977,103.202102734375Q59.34834291625977,103.195402734375,59.21175291625977,103.181902734375Q59.07515291625977,103.16840273437501,58.93938291625977,103.148202734375Q58.803612916259766,103.128002734375,58.66899291625977,103.101202734375Q58.53437291625976,103.074302734375,58.401232916259765,103.040902734375Q58.26809291625977,103.007502734375,58.13674291625976,102.967502734375Q58.00540291625977,102.927602734375,57.876162916259766,102.881202734375Q57.746932916259766,102.83490273437499,57.62012291625977,102.782202734375Q57.49331291625977,102.729502734375,57.36923291625977,102.670702734375Q57.245162916259765,102.61190273437501,57.12411291625977,102.547002734375Q57.003062916259765,102.482102734375,56.88533291625976,102.411402734375Q56.76760291625977,102.340602734375,56.65348291625977,102.264202734375Q56.539352916259766,102.187702734375,56.42911291625977,102.105802734375Q56.31886291625977,102.023802734375,56.21276291625976,101.936502734375Q56.106662916259765,101.849202734375,56.004962916259764,101.756792734375Q55.90326291625976,101.66437273437501,55.806202916259764,101.567072734375Q55.70915291625977,101.469772734375,55.61697291625977,101.36781273437501Q55.524802916259766,101.265852734375,55.437722916259766,101.159472734375Q55.35065291625977,101.053102734375,55.268892916259766,100.942572734375Q55.18712291625977,100.832042734375,55.110869916259766,100.717632734375Q55.03461491625976,100.603212734375,54.964050916259765,100.485182734375Q54.89348691625977,100.367152734375,54.828784916259764,100.245792734375Q54.76408291625977,100.124432734375,54.70539791625976,100.000032734375Q54.64671391625976,99.875632734375,54.59418791625976,99.748502734375Q54.54166191625976,99.621372734375,54.495421916259765,99.491802734375Q54.44918191625977,99.362242734375,54.409337916259766,99.230552734375Q54.36949491625977,99.09887273437499,54.336143916259765,98.965392734375Q54.302793916259766,98.831902734375,54.276015916259766,98.696942734375Q54.24923891625976,98.561972734375,54.22909921625977,98.425852734375Q54.20895951625977,98.289742734375,54.195506116259764,98.152792734375Q54.18205261625977,98.015842734375,54.17531776625977,97.878402734375Q54.168582916259766,97.740962734375,54.168582916259766,97.603352734375Q54.168582916259766,97.465742734375,54.17531776625977,97.328302734375Q54.18205261625977,97.190862734375,54.195506116259764,97.053912734375Q54.20895951625977,96.916962734375,54.22909921625977,96.780842734375Q54.24923891625976,96.644732734375,54.276015916259766,96.509762734375Q54.302793916259766,96.374802734375,54.336143916259765,96.241312734375Q54.36949491625977,96.107832734375,54.409337916259766,95.976142734375Q54.44918191625977,95.844462734375,54.495421916259765,95.714902734375Q54.54166191625976,95.585332734375,54.59418791625976,95.45820273437499Q54.64671391625976,95.331062734375,54.70539791625976,95.206672734375Q54.76408291625977,95.082272734375,54.828784916259764,94.960912734375Q54.89348691625977,94.839552734375,54.964050916259765,94.721522734375Q55.03461491625976,94.603492734375,55.110869916259766,94.489072734375Q55.18712291625977,94.374662734375,55.268892916259766,94.264132734375Q55.35065291625977,94.153602734375,55.437722916259766,94.047232734375Q55.524802916259766,93.940852734375,55.61697291625977,93.838892734375Q55.70915291625977,93.736932734375,55.806202916259764,93.639632734375Q55.90326291625976,93.542322734375,56.004962916259764,93.449912734375Q56.106662916259765,93.357502734375,56.21276291625976,93.270202734375Q56.31886291625977,93.182902734375,56.42911291625977,93.100932734375Q56.539352916259766,93.018962734375,56.65348291625977,92.942507734375Q56.76760291625977,92.866056734375,56.88533291625976,92.795311734375Q57.003062916259765,92.724566734375,57.12411291625977,92.659698734375Q57.245162916259765,92.594830734375,57.36923291625977,92.535995734375Q57.49331291625977,92.477160734375,57.62012291625977,92.424499734375Q57.746932916259766,92.371838734375,57.876162916259766,92.325480734375Q58.00540291625977,92.279121734375,58.13674291625976,92.239175734375Q58.26809291625977,92.199229734375,58.401232916259765,92.165793734375Q58.53437291625976,92.132357734375,58.66899291625977,92.105511734375Q58.803612916259766,92.078665734375,58.93938291625977,92.058474334375Q59.07515291625977,92.038282934375,59.21175291625977,92.024795034375Q59.34834291625977,92.011307034375,59.48543291625977,92.004554864375Q59.622532916259765,91.997802734375,59.759782916259766,91.997802734375Q59.897042916259764,91.997802734375,60.034132916259765,92.004554864375Q60.171222916259765,92.011307034375,60.30782291625977,92.024795034375Q60.444412916259765,92.038282934375,60.580182916259766,92.058474334375Q60.715952916259766,92.078665734375,60.850572916259765,92.105511734375Q60.98519291625976,92.132357734375,61.11833291625977,92.165793734375Q61.251472916259765,92.199229734375,61.38282291625977,92.239175734375Q61.51417291625977,92.279121734375,61.64340291625977,92.325480734375Q61.77263291625977,92.371838734375,61.899442916259765,92.424499734375Q62.026252916259764,92.477160734375,62.150332916259764,92.535995734375Q62.27441291625976,92.594830734375,62.395452916259764,92.659698734375Q62.51650291625977,92.724566734375,62.63423291625976,92.795311734375Q62.751962916259764,92.866056734375,62.866082916259764,92.942507734375Q62.98021291625977,93.018962734375,63.09046291625977,93.100932734375Q63.200702916259765,93.182902734375,63.30680291625977,93.270202734375Q63.41290291625977,93.357502734375,63.51460291625976,93.449912734375Q63.61630291625977,93.542322734375,63.71336291625977,93.639632734375Q63.810412916259764,93.736932734375,63.90259291625976,93.838892734375Q63.994762916259766,93.940852734375,64.08184291625976,94.047232734375Q64.16888291625976,94.153602734375,64.25068291625976,94.264132734375Q64.33248291625976,94.374662734375,64.40868291625976,94.489072734375Q64.48498291625977,94.603492734375,64.55548291625976,94.721522734375Q64.62608291625976,94.839552734375,64.69078291625976,94.960912734375Q64.75548291625977,95.082272734375,64.81418291625977,95.206672734375Q64.87288291625977,95.331072734375,64.92538291625976,95.45820273437499Q64.97788291625977,95.585332734375,65.02418291625976,95.714902734375Q65.07038291625976,95.844462734375,65.11018291625976,95.976142734375Q65.15008291625976,96.107832734375,65.18338291625976,96.241312734375Q65.21678291625976,96.374802734375,65.24358291625977,96.509762734375Q65.27028291625976,96.644732734375,65.29048291625976,96.780842734375Q65.31058291625976,96.916962734375,65.32408291625977,97.053912734375Q65.33748291625977,97.190862734375,65.34428291625977,97.328302734375Q65.35098291625977,97.465742734375,65.35098291625977,97.603352734375Z" fill="#313131" fill-opacity="1" style="mix-blend-mode:passthrough"/><path d="M55.38506291625976,93.219662734375Q53.57373691625977,95.035692734375,53.57373691625977,97.603352734375Q53.57373691625977,100.17104273437499,55.38497291625976,101.98703273437499Q57.19693291625977,103.803702734375,59.759782916259766,103.803702734375Q62.322632916259764,103.803702734375,64.13459291625976,101.98703273437499Q65.94588291625976,100.17104273437499,65.94578291625976,97.603352734375Q65.94588291625976,95.035692734375,64.13450291625976,93.219662734375Q62.32249291625976,91.402955734375,59.759782916259766,91.402956734375Q57.19707291625976,91.402956734375,55.38506291625976,93.219662734375ZM56.22731291625976,101.146892734375Q54.76342891625976,99.679172734375,54.76342891625976,97.603352734375Q54.76342991625977,95.527572734375,56.22739291625977,94.059812734375Q57.690762916259764,92.592648734375,59.759782916259766,92.592648734375Q61.82880291625977,92.592648734375,63.292172916259766,94.059812734375Q64.75618291625976,95.527572734375,64.75618291625976,97.603352734375Q64.75618291625976,99.679172734375,63.29225291625977,101.146892734375Q61.82893291625977,102.614102734375,59.759782916259766,102.614102734375Q57.690632916259766,102.614102734375,56.22731291625976,101.146892734375Z" fill-rule="evenodd" fill="#893AF6" fill-opacity="1" style="mix-blend-mode:passthrough"/></g><g><path d="M104.287624609375,94.29488868408203Q104.287624609375,94.43249868408203,104.280924609375,94.56993868408203Q104.27412460937501,94.70737868408203,104.260724609375,94.84432868408203Q104.247224609375,94.98127868408203,104.227124609375,95.11738868408203Q104.206924609375,95.25350868408204,104.180224609375,95.38847868408203Q104.153424609375,95.52343868408204,104.120024609375,95.65692868408203Q104.086724609375,95.79040868408202,104.046824609375,95.92208868408203Q104.007024609375,96.05377868408203,103.960824609375,96.18333868408203Q103.91452460937501,96.31290868408203,103.862024609375,96.44003868408203Q103.809524609375,96.56716868408203,103.750824609375,96.69156868408203Q103.692124609375,96.81596868408204,103.627424609375,96.93732868408203Q103.562724609375,97.05868868408203,103.492124609375,97.17671868408203Q103.421624609375,97.29474868408204,103.345324609375,97.40916868408203Q103.269124609375,97.52357868408203,103.187324609375,97.63410868408204Q103.105524609375,97.74463868408203,103.018484609375,97.85100868408203Q102.931404609375,97.95738868408203,102.839234609375,98.05934868408204Q102.747054609375,98.16130868408203,102.650004609375,98.25860868408203Q102.552944609375,98.35590868408204,102.451244609375,98.44832868408203Q102.349544609375,98.54073868408203,102.243444609375,98.62803868408203Q102.137344609375,98.71533868408203,102.027104609375,98.79733868408204Q101.916854609375,98.87923868408203,101.802724609375,98.95573868408204Q101.688604609375,99.03213868408203,101.570874609375,99.10293868408203Q101.453154609375,99.17363868408204,101.332104609375,99.23853868408203Q101.211054609375,99.30343868408204,101.086974609375,99.36223868408203Q100.962894609375,99.42103868408203,100.836084609375,99.47373868408204Q100.709274609375,99.52643868408202,100.580044609375,99.57273868408203Q100.450814609375,99.61913868408203,100.319464609375,99.65903868408203Q100.188124609375,99.69903868408203,100.054974609375,99.73243868408203Q99.921834609375,99.76583868408203,99.787214609375,99.79273868408202Q99.652594609375,99.81953868408203,99.51682460937499,99.83973868408204Q99.381054609375,99.85993868408204,99.244464609375,99.87343868408203Q99.107864609375,99.88693868408203,98.970774609375,99.89363868408203Q98.833684609375,99.90043868408203,98.696424609375,99.90043868408203Q98.559174609375,99.90043868408203,98.422074609375,99.89363868408203Q98.284984609375,99.88693868408203,98.148394609375,99.87343868408203Q98.011794609375,99.85993868408204,97.876024609375,99.83973868408204Q97.740254609375,99.81953868408203,97.605634609375,99.79273868408202Q97.471014609375,99.76583868408203,97.337874609375,99.73243868408203Q97.204734609375,99.69903868408203,97.073384609375,99.65903868408203Q96.942044609375,99.61913868408203,96.81280460937501,99.57273868408203Q96.683574609375,99.52643868408202,96.556764609375,99.47373868408204Q96.429954609375,99.42103868408203,96.305874609375,99.36223868408203Q96.181804609375,99.30343868408204,96.060754609375,99.23853868408203Q95.939704609375,99.17363868408204,95.821974609375,99.10293868408203Q95.704244609375,99.03213868408203,95.590124609375,98.95573868408204Q95.475994609375,98.87923868408203,95.365754609375,98.79733868408204Q95.255504609375,98.71533868408203,95.149404609375,98.62803868408203Q95.043304609375,98.54073868408203,94.941604609375,98.44832868408203Q94.839904609375,98.35590868408204,94.742844609375,98.25860868408203Q94.645794609375,98.16130868408203,94.553614609375,98.05934868408204Q94.461444609375,97.95738868408203,94.374364609375,97.85100868408203Q94.287294609375,97.74463868408203,94.205534609375,97.63410868408204Q94.123764609375,97.52357868408203,94.047511609375,97.40916868408203Q93.971256609375,97.29474868408204,93.900692609375,97.17671868408203Q93.830128609375,97.05868868408203,93.765426609375,96.93732868408203Q93.700724609375,96.81596868408204,93.642039609375,96.69156868408203Q93.583355609375,96.56716868408203,93.530829609375,96.44003868408203Q93.478303609375,96.31290868408203,93.432063609375,96.18333868408203Q93.385823609375,96.05377868408203,93.345979609375,95.92208868408203Q93.306136609375,95.79040868408202,93.272785609375,95.65692868408203Q93.239435609375,95.52343868408204,93.212657609375,95.38847868408203Q93.185880609375,95.25350868408204,93.165740909375,95.11738868408203Q93.145601209375,94.98127868408203,93.132147809375,94.84432868408203Q93.118694309375,94.70737868408203,93.111959459375,94.56993868408203Q93.105224609375,94.43249868408203,93.105224609375,94.29488868408203Q93.105224609375,94.15727868408203,93.111959459375,94.01983868408203Q93.118694309375,93.88239868408203,93.132147809375,93.74544868408204Q93.145601209375,93.60849868408204,93.165740909375,93.47237868408203Q93.185880609375,93.33626868408203,93.212657609375,93.20129868408203Q93.239435609375,93.06633868408203,93.272785609375,92.93284868408203Q93.306136609375,92.79936868408203,93.345979609375,92.66767868408203Q93.385823609375,92.53599868408203,93.432063609375,92.40643868408203Q93.478303609375,92.27686868408203,93.530829609375,92.14973868408202Q93.583355609375,92.02259868408203,93.642039609375,91.89820868408204Q93.700724609375,91.77380868408203,93.765426609375,91.65244868408203Q93.830128609375,91.53108868408204,93.900692609375,91.41305868408203Q93.971256609375,91.29502868408203,94.047511609375,91.18060868408203Q94.123764609375,91.06619868408202,94.205534609375,90.95566868408203Q94.287294609375,90.84513868408203,94.374364609375,90.73876868408203Q94.461444609375,90.63238868408203,94.553614609375,90.53042868408203Q94.645794609375,90.42846868408203,94.742844609375,90.33116868408203Q94.839904609375,90.23385868408204,94.941604609375,90.14144868408204Q95.043304609375,90.04903868408203,95.149404609375,89.96173868408204Q95.255504609375,89.87443868408204,95.365754609375,89.79246868408202Q95.475994609375,89.71049868408203,95.590124609375,89.63404368408203Q95.704244609375,89.55759268408202,95.821974609375,89.48684768408204Q95.939704609375,89.41610268408203,96.060754609375,89.35123468408203Q96.181804609375,89.28636668408203,96.305874609375,89.22753168408204Q96.429954609375,89.16869668408204,96.556764609375,89.11603568408204Q96.683574609375,89.06337468408204,96.81280460937501,89.01701668408204Q96.942044609375,88.97065768408203,97.073384609375,88.93071168408203Q97.204734609375,88.89076568408203,97.337874609375,88.85732968408203Q97.471014609375,88.82389368408204,97.605634609375,88.79704768408203Q97.740254609375,88.77020168408202,97.876024609375,88.75001028408204Q98.011794609375,88.72981888408204,98.148394609375,88.71633098408203Q98.284984609375,88.70284298408203,98.422074609375,88.69609081408203Q98.559174609375,88.68933868408203,98.696424609375,88.68933868408203Q98.833684609375,88.68933868408203,98.970774609375,88.69609081408203Q99.107864609375,88.70284298408203,99.244464609375,88.71633098408203Q99.381054609375,88.72981888408204,99.51682460937499,88.75001028408204Q99.652594609375,88.77020168408202,99.787214609375,88.79704768408203Q99.921834609375,88.82389368408204,100.054974609375,88.85732968408203Q100.188114609375,88.89076568408203,100.319464609375,88.93071168408203Q100.450814609375,88.97065768408203,100.580044609375,89.01701668408204Q100.709274609375,89.06337468408204,100.836084609375,89.11603568408204Q100.962894609375,89.16869668408204,101.086974609375,89.22753168408204Q101.211054609375,89.28636668408203,101.332094609375,89.35123468408203Q101.453144609375,89.41610268408203,101.570874609375,89.48684768408204Q101.688604609375,89.55759268408202,101.802724609375,89.63404368408203Q101.916854609375,89.71049868408203,102.027104609375,89.79246868408202Q102.137344609375,89.87443868408204,102.243444609375,89.96173868408204Q102.349544609375,90.04903868408203,102.451244609375,90.14144868408204Q102.552944609375,90.23385868408204,102.650004609375,90.33116868408203Q102.747054609375,90.42846868408203,102.839234609375,90.53042868408203Q102.931404609375,90.63238868408203,103.018484609375,90.73876868408203Q103.105524609375,90.84513868408203,103.187324609375,90.95566868408203Q103.269124609375,91.06619868408202,103.345324609375,91.18060868408203Q103.421624609375,91.29502868408203,103.492124609375,91.41305868408203Q103.562724609375,91.53108868408204,103.627424609375,91.65244868408203Q103.692124609375,91.77380868408203,103.750824609375,91.89820868408204Q103.809524609375,92.02260868408203,103.862024609375,92.14973868408202Q103.91452460937501,92.27686868408203,103.960824609375,92.40643868408203Q104.007024609375,92.53599868408203,104.046824609375,92.66767868408203Q104.086724609375,92.79936868408203,104.120024609375,92.93284868408203Q104.153424609375,93.06633868408203,104.180224609375,93.20129868408203Q104.206924609375,93.33626868408203,104.227124609375,93.47237868408203Q104.247224609375,93.60849868408204,104.260724609375,93.74544868408204Q104.27412460937501,93.88239868408203,104.280924609375,94.01983868408203Q104.287624609375,94.15727868408203,104.287624609375,94.29488868408203Z" fill="#313131" fill-opacity="1" style="mix-blend-mode:passthrough"/><path d="M94.321804609375,89.91109868408203Q92.510378609375,91.72712868408203,92.510378609375,94.29488868408203Q92.510378609375,96.86250868408203,94.321804609375,98.67857868408203Q96.133864609375,100.49523868408203,98.696424609375,100.49523868408203Q101.259004609375,100.49523868408203,103.071054609375,98.67857868408203Q104.882424609375,96.86250868408203,104.882424609375,94.29488868408203Q104.882424609375,91.72698868408203,103.07104460937501,89.91100868408203Q101.259064609375,88.09449268408203,98.696424609375,88.09449268408203Q96.133814609375,88.09449268408203,94.321804609375,89.91109868408203ZM95.164124609375,97.83841868408203Q93.700070609375,96.37061868408203,93.700070609375,94.29488868408203Q93.700071609375,92.21902868408203,95.164114609375,90.75127868408202Q96.627484609375,89.28418468408204,98.696424609375,89.28418468408204Q100.765404609375,89.28418468408204,102.228744609375,90.75119868408203Q103.692824609375,92.21890868408204,103.692824609375,94.29488868408203Q103.692824609375,96.37061868408203,102.228734609375,97.83841868408203Q100.765324609375,99.30563868408203,98.696424609375,99.30563868408203Q96.627544609375,99.30563868408203,95.164124609375,97.83841868408203Z" fill-rule="evenodd" fill="#893AF6" fill-opacity="1" style="mix-blend-mode:passthrough"/></g><g><path d="M21.208197006225586,17.14260958435547L6.659257006225586,18.380279714355467C5.398501006225586,18.48764971435547,4.462950106225586,19.59924971435547,4.570047156225586,20.86324971435547C4.676916006225586,22.127249714355468,5.7856670062255855,23.06496971435547,7.046657006225586,22.95782971435547L21.595597006225585,21.72014971435547C22.856397006225585,21.61300971435547,23.791697006225586,20.50117971435547,23.684797006225587,19.23718971435547C23.577697006225584,17.97318971435547,22.468997006225585,17.03547021435547,21.208197006225586,17.14260958435547Z" fill="#893AF6" fill-opacity="1" style="mix-blend-mode:passthrough"/></g><g><path d="M83.62663171386718,56.25927354614258Q83.65743171386718,56.35122354614258,83.65743171386718,56.44818354614258Q83.65743171386718,56.50678354614258,83.64603171386719,56.56426354614258Q83.63463171386718,56.621743546142575,83.61213171386719,56.67588354614258Q83.5897317138672,56.730023546142576,83.5572317138672,56.77875354614258Q83.5246317138672,56.82747354614258,83.48323171386718,56.86891354614258Q83.44173171386718,56.91035354614258,83.39303171386719,56.94291354614258Q83.34433171386719,56.97546354614258,83.29013171386718,56.99789354614258Q83.23603171386719,57.02032354614258,83.17853171386719,57.03175354614258Q83.12103171386718,57.04318354614258,83.06243171386718,57.04318354614258Q82.96543171386719,57.04318354614258,82.87343171386719,57.01236354614258Q82.78143171386719,56.981543546142575,82.70403171386718,56.92309354614258Q82.6265317138672,56.86463354614258,82.5717317138672,56.78461354614258Q82.51683171386719,56.704593546142576,82.49023171386719,56.61128354614258Q81.5512317138672,53.58690354614258,78.9296317138672,51.81735354614258Q76.30313171386719,50.04433754614258,73.14817171386719,50.31402954614258Q69.99337171386719,50.58370954614258,67.70413171386718,52.77742354614258Q65.41941171386719,54.96680354614258,65.00466871386719,58.10718354614258Q64.99879171386719,58.161413546142576,64.98315071386719,58.21367354614258Q64.96750971386719,58.26593354614258,64.94262571386719,58.314483546142576Q64.91774271386718,58.363033546142574,64.88444671386719,58.406243546142576Q64.85114971386719,58.44945354614258,64.81055171386718,58.48589354614258Q64.76995271386718,58.52232354614258,64.72340471386718,58.55077354614258Q64.6768577138672,58.57922354614258,64.6259127138672,58.598733546142576Q64.5749687138672,58.61823354614258,64.52132571386718,58.62816354614258Q64.46768371386719,58.63807354614258,64.41313171386719,58.63808354614258Q64.35452931386719,58.63807354614258,64.29705271386719,58.626643546142574Q64.2395767138672,58.61521354614258,64.18543471386718,58.59278354614258Q64.1312937138672,58.57036354614258,64.08256771386719,58.53780354614258Q64.03384171386719,58.50524354614258,63.992402713867186,58.46380354614258Q63.95096471386719,58.42236354614258,63.91840771386719,58.373643546142574Q63.88584971386719,58.32491354614258,63.863423713867185,58.27077354614258Q63.84099771386719,58.216633546142575,63.829564713867185,58.159153546142576Q63.81813171386719,58.10168354614258,63.81813171386719,58.04307354614258Q63.81813171386719,57.99736354614258,63.825115713867184,57.95218354614258Q64.29430471386719,54.39720354614258,66.88101171386718,51.91845354614258Q69.47353171386719,49.43411554614258,73.0468417138672,49.12865954614258Q76.62043171386719,48.82317754614258,79.5952317138672,50.831273546142576Q82.56383171386719,52.835053546142575,83.62663171386718,56.25927354614258Z" fill-rule="evenodd" fill="#893AF6" fill-opacity="1" style="mix-blend-mode:passthrough"/></g><g><path d="M84.54639073730469,43.868493796386716Q84.54639073730469,43.93398379638672,84.53998073730469,43.99915379638672Q84.53358073730469,44.06432379638672,84.52084073730468,44.12855379638672Q84.50810073730469,44.19278379638672,84.48913073730469,44.25545379638672Q84.47017073730468,44.31812379638672,84.4451707373047,44.37862379638672Q84.42018073730469,44.43913379638672,84.3893907373047,44.49688379638672Q84.35859073730468,44.55464379638672,84.32230073730469,44.609093796386716Q84.2860107373047,44.66354379638672,84.24458073730469,44.71416379638672Q84.2031407373047,44.76479379638672,84.15695073730468,44.81109379638672Q84.11076073730469,44.85740379638672,84.06027073730469,44.89895379638672Q84.00977073730469,44.94049379638672,83.95546073730469,44.97687379638672Q83.90115073730469,45.01326379638672,83.84354073730469,45.04413379638672Q83.78593073730468,45.07500379638672,83.72559073730469,45.10006379638672Q83.66524073730469,45.12512379638672,83.60273073730468,45.14413379638672Q83.5402207373047,45.16314379638672,83.47616073730468,45.17592379638672Q83.41209073730468,45.188693796386715,83.3470807373047,45.19511379638672Q83.28208073730468,45.20153379638672,83.21676073730468,45.20153379638672Q83.15144073730468,45.20153379638672,83.08643073730468,45.19511379638672Q83.02143073730468,45.188693796386715,82.95736073730468,45.17592379638672Q82.89330073730468,45.16314379638672,82.83078873730469,45.14413379638672Q82.76828073730469,45.12512379638672,82.70793273730469,45.10006379638672Q82.64758373730469,45.07500379638672,82.58997673730468,45.04413379638672Q82.5323687373047,45.01326379638672,82.47805673730468,44.97687379638672Q82.42374473730469,44.94049379638672,82.37325173730468,44.89894379638672Q82.32275873730468,44.85740379638672,82.27656973730468,44.81109379638672Q82.23038173730468,44.76479379638672,82.18894273730469,44.71416379638672Q82.14750373730469,44.66354379638672,82.11121373730468,44.609093796386716Q82.07492373730469,44.55464379638672,82.04413173730468,44.49688379638672Q82.01333973730469,44.43913379638672,81.98834273730469,44.37862379638672Q81.96334563730468,44.31812379638672,81.94438413730468,44.25545379638672Q81.92542253730468,44.19278379638672,81.91267913730469,44.12855379638672Q81.89993573730469,44.06432379638672,81.89353325730468,43.99915379638672Q81.88713073730469,43.93398379638672,81.88713073730469,43.868493796386716Q81.88713073730469,43.80300379638672,81.89353325730468,43.73783379638672Q81.89993573730469,43.67266379638672,81.91267913730469,43.60843379638672Q81.92542253730468,43.54420379638672,81.94438413730468,43.481532796386716Q81.96334563730468,43.41886479638672,81.98834273730469,43.35836179638672Q82.01333973730469,43.29785879638672,82.04413173730468,43.24010379638672Q82.07492373730469,43.18234779638672,82.11121373730468,43.12789679638672Q82.14750373730469,43.07344579638672,82.18894273730469,43.02282279638672Q82.23038173730468,42.97219979638672,82.27656973730468,42.92589279638672Q82.32275873730468,42.879584796386716,82.37325173730468,42.83803979638672Q82.42374473730469,42.79649479638672,82.47805673730468,42.76011179638672Q82.5323687373047,42.723728796386716,82.58997673730468,42.69285779638672Q82.64758373730469,42.66198679638672,82.70793273730469,42.63692579638672Q82.76828073730469,42.61186429638672,82.83078873730469,42.592854096386716Q82.89330073730468,42.57384389638672,82.95736073730468,42.561067796386716Q83.02143073730468,42.54829169638672,83.08643073730468,42.541872746386716Q83.15144073730468,42.53545379638672,83.21676073730468,42.53545379638672Q83.28208073730468,42.53545379638672,83.3470807373047,42.541872746386716Q83.41209073730468,42.54829169638672,83.47616073730468,42.561067796386716Q83.5402207373047,42.57384389638672,83.60273073730468,42.592854096386716Q83.66524073730469,42.61186429638672,83.72559073730469,42.63692579638672Q83.78593073730468,42.66198679638672,83.84354073730469,42.69285779638672Q83.90115073730469,42.723728796386716,83.95546073730469,42.76011179638672Q84.00977073730469,42.79649479638672,84.06027073730469,42.83803979638672Q84.11076073730469,42.879584796386716,84.15695073730468,42.92589279638672Q84.2031407373047,42.97219979638672,84.24458073730469,43.02282279638672Q84.2860107373047,43.07344579638672,84.32230073730469,43.12789679638672Q84.35859073730468,43.18234779638672,84.3893907373047,43.24010379638672Q84.42018073730469,43.29785879638672,84.4451707373047,43.35836179638672Q84.47017073730468,43.41886479638672,84.48913073730469,43.481532796386716Q84.50810073730469,43.54420379638672,84.52084073730468,43.60843379638672Q84.53358073730469,43.67266379638672,84.53998073730469,43.73783379638672Q84.54639073730469,43.80300379638672,84.54639073730469,43.868493796386716Z" fill="#893AF6" fill-opacity="1" style="mix-blend-mode:passthrough"/></g><g><path d="M63.47550603271485,45.65364623168945Q63.47550603271485,45.719136231689454,63.469096032714845,45.784306231689456Q63.462696032714845,45.84947623168945,63.449956032714844,45.91370623168945Q63.43721603271484,45.977936231689455,63.41824603271484,46.04060623168945Q63.39928603271484,46.103276231689456,63.37428603271484,46.163776231689454Q63.34929603271485,46.224286231689454,63.31850603271484,46.28203623168945Q63.287706032714844,46.339796231689455,63.25141603271484,46.39424623168945Q63.21512603271484,46.44869623168945,63.173696032714844,46.499316231689455Q63.13225603271484,46.549946231689454,63.08606603271485,46.596246231689456Q63.039876032714844,46.642556231689454,62.98938603271485,46.684106231689455Q62.93888603271484,46.72564623168945,62.88457603271485,46.762026231689454Q62.830266032714846,46.79841623168945,62.77265603271484,46.82928623168945Q62.715046032714845,46.86015623168945,62.65470603271484,46.885216231689455Q62.59435603271484,46.91027623168945,62.531846032714846,46.92928623168945Q62.46933603271484,46.948296231689454,62.405276032714845,46.961076231689454Q62.341206032714844,46.97384623168945,62.27619603271484,46.980266231689455Q62.211196032714845,46.986686231689454,62.145876032714845,46.986686231689454Q62.080556032714846,46.986686231689454,62.015546032714845,46.980266231689455Q61.95054603271485,46.97384623168945,61.886476032714846,46.961076231689454Q61.82241603271484,46.948296231689454,61.75990403271484,46.92928623168945Q61.69739603271484,46.91027623168945,61.637048032714844,46.885216231689455Q61.57669903271484,46.86015623168945,61.519092032714845,46.82928623168945Q61.46148403271484,46.79841623168945,61.40717203271485,46.762026231689454Q61.352860032714844,46.72564623168945,61.30236703271484,46.68409623168945Q61.251874032714845,46.642556231689454,61.20568503271485,46.596246231689456Q61.159497032714846,46.549946231689454,61.11805803271484,46.499316231689455Q61.076619032714845,46.44869623168945,61.040329032714844,46.39424623168945Q61.00403903271484,46.339796231689455,60.973247032714845,46.28203623168945Q60.94245503271485,46.224286231689454,60.91745803271484,46.163776231689454Q60.89246093271484,46.103276231689456,60.873499432714844,46.04060623168945Q60.85453783271485,45.977936231689455,60.84179443271484,45.91370623168945Q60.829051032714844,45.84947623168945,60.822648552714845,45.784306231689456Q60.816246032714844,45.719136231689454,60.816246032714844,45.65364623168945Q60.816246032714844,45.58815623168945,60.822648552714845,45.52298623168945Q60.829051032714844,45.457816231689456,60.84179443271484,45.393586231689454Q60.85453783271485,45.32935623168945,60.873499432714844,45.26668523168945Q60.89246093271484,45.204017231689456,60.91745803271484,45.14351423168945Q60.94245503271485,45.083011231689454,60.973247032714845,45.025256231689454Q61.00403903271484,44.967500231689456,61.040329032714844,44.913049231689456Q61.076619032714845,44.858598231689456,61.11805803271484,44.807975231689454Q61.159497032714846,44.75735223168945,61.20568503271485,44.711045231689454Q61.251874032714845,44.66473723168945,61.30236703271484,44.62319223168945Q61.352860032714844,44.58164723168945,61.40717203271485,44.54526423168945Q61.46148403271484,44.50888123168945,61.519092032714845,44.47801023168945Q61.57669903271484,44.447139231689455,61.637048032714844,44.422078231689454Q61.69739603271484,44.397016731689455,61.75990403271484,44.37800653168945Q61.82241603271484,44.358996331689454,61.886476032714846,44.34622023168945Q61.95054603271485,44.333444131689454,62.015546032714845,44.32702518168945Q62.080556032714846,44.32060623168945,62.145876032714845,44.32060623168945Q62.211196032714845,44.32060623168945,62.27619603271484,44.32702518168945Q62.341206032714844,44.333444131689454,62.405276032714845,44.34622023168945Q62.46933603271484,44.358996331689454,62.531846032714846,44.37800653168945Q62.59435603271484,44.397016731689455,62.65470603271484,44.422078231689454Q62.715046032714845,44.447139231689455,62.77265603271484,44.47801023168945Q62.830266032714846,44.50888123168945,62.88457603271485,44.54526423168945Q62.93888603271484,44.58164723168945,62.98938603271485,44.62319223168945Q63.039876032714844,44.66473723168945,63.08606603271485,44.711045231689454Q63.13225603271484,44.75735223168945,63.173696032714844,44.807975231689454Q63.21512603271484,44.858598231689456,63.25141603271484,44.913049231689456Q63.287706032714844,44.967500231689456,63.31850603271484,45.025256231689454Q63.34929603271485,45.083011231689454,63.37428603271484,45.14351423168945Q63.39928603271484,45.204017231689456,63.41824603271484,45.26668523168945Q63.43721603271484,45.32935623168945,63.449956032714844,45.393586231689454Q63.462696032714845,45.457816231689456,63.469096032714845,45.52298623168945Q63.47550603271485,45.58815623168945,63.47550603271485,45.65364623168945Z" fill="#893AF6" fill-opacity="1" style="mix-blend-mode:passthrough"/></g><g><path d="M25.28778385095215,95.96263846787109Q25.287937850952147,95.9558799078711,25.287937850952147,95.9491195678711Q25.287937850952147,95.8905171678711,25.276504850952147,95.8330405678711Q25.265071850952147,95.7755645678711,25.242645850952147,95.72142256787109Q25.220219850952148,95.6672815678711,25.18766185095215,95.6185555678711Q25.15510485095215,95.5698295678711,25.11366685095215,95.5283905678711Q25.07222785095215,95.4869525678711,25.023501850952147,95.45439556787109Q24.97477585095215,95.4218375678711,24.920634850952148,95.3994115678711Q24.86649285095215,95.37698556787109,24.809016850952148,95.36555256787109Q24.75154025095215,95.3541195678711,24.69293785095215,95.3541195678711Q24.634335450952147,95.3541195678711,24.57685885095215,95.36555256787109Q24.519382850952148,95.37698556787109,24.46524085095215,95.3994115678711Q24.411099850952148,95.4218375678711,24.36237385095215,95.45439556787109Q24.313647850952147,95.4869525678711,24.272208850952147,95.5283905678711Q24.230770850952148,95.5698295678711,24.198213850952147,95.6185555678711Q24.16565585095215,95.6672815678711,24.14322985095215,95.72142256787109Q24.12080385095215,95.7755645678711,24.10937085095215,95.8330405678711Q24.09793785095215,95.8905171678711,24.09793785095215,95.9491195678711Q24.09793785095215,95.9558799078711,24.098091850952148,95.96263846787109L24.098091850952148,101.0650095678711Q24.09793785095215,101.07176956787109,24.09793785095215,101.0785295678711Q24.09793785095215,101.1371295678711,24.10937085095215,101.1946095678711Q24.12080385095215,101.2520895678711,24.14322985095215,101.3062295678711Q24.16565585095215,101.36036956787109,24.198213850952147,101.4090995678711Q24.230770850952148,101.4578195678711,24.272208850952147,101.49925956787109Q24.313647850952147,101.54069956787109,24.36237385095215,101.57325956787109Q24.411099850952148,101.60580956787109,24.46524085095215,101.62823956787109Q24.519382850952148,101.65066956787109,24.57685885095215,101.6620995678711Q24.634335450952147,101.6735295678711,24.69293785095215,101.6735295678711Q24.75154025095215,101.6735295678711,24.809016850952148,101.6620995678711Q24.86649285095215,101.65066956787109,24.920634850952148,101.62823956787109Q24.97477585095215,101.60580956787109,25.023501850952147,101.57325956787109Q25.07222785095215,101.54069956787109,25.11366685095215,101.49925956787109Q25.15510485095215,101.4578195678711,25.18766185095215,101.4090995678711Q25.220219850952148,101.36036956787109,25.242645850952147,101.3062295678711Q25.265071850952147,101.2520895678711,25.276504850952147,101.1946095678711Q25.287937850952147,101.1371295678711,25.287937850952147,101.0785295678711Q25.287937850952147,101.07176956787109,25.28778385095215,101.0650095678711L25.28778385095215,95.96263846787109Z" fill-rule="evenodd" fill="#893AF6" fill-opacity="1" style="mix-blend-mode:passthrough"/></g><g><path d="M22.154304117285157,99.10266612939454Q22.147545557285156,99.10282012939453,22.140785217285156,99.10282012939453Q22.082182817285155,99.10282012939453,22.024706217285157,99.09138712939453Q21.967230217285156,99.07995412939454,21.913088217285157,99.05752812939453Q21.858947217285156,99.03510212939453,21.810221217285157,99.00254412939454Q21.761495217285155,98.96998712939453,21.720056217285155,98.92854912939453Q21.678618217285155,98.88711012939453,21.646061217285155,98.83838412939453Q21.613503217285157,98.78965812939452,21.591077217285157,98.73551712939454Q21.568651217285158,98.68137512939452,21.557218217285158,98.62389912939453Q21.545785217285157,98.56642252939453,21.545785217285157,98.50782012939453Q21.545785217285157,98.44921772939453,21.557218217285158,98.39174112939453Q21.568651217285158,98.33426512939454,21.591077217285157,98.28012312939452Q21.613503217285157,98.22598212939454,21.646061217285155,98.17725612939454Q21.678618217285155,98.12853012939453,21.720056217285155,98.08709112939454Q21.761495217285155,98.04565312939454,21.810221217285157,98.01309612939453Q21.858947217285156,97.98053812939453,21.913088217285157,97.95811212939454Q21.967230217285156,97.93568612939453,22.024706217285157,97.92425312939453Q22.082182817285155,97.91282012939453,22.140785217285156,97.91282012939453Q22.147545557285156,97.91282012939453,22.154304117285157,97.91297412939453L27.231805217285157,97.91297412939453Q27.238565217285156,97.91282012939453,27.245325217285156,97.91282012939453Q27.303925217285155,97.91282012939453,27.361405217285157,97.92425312939453Q27.418875217285155,97.93568612939453,27.473015217285155,97.95811212939454Q27.527155217285156,97.98053812939453,27.575885217285155,98.01309612939453Q27.624615217285157,98.04565312939454,27.666055217285155,98.08709112939454Q27.707485217285157,98.12853012939453,27.740045217285157,98.17725612939454Q27.772605217285157,98.22598212939454,27.795025217285158,98.28012312939452Q27.817455217285158,98.33426512939454,27.828885217285155,98.39174112939453Q27.840325217285155,98.44921772939453,27.840325217285155,98.50782012939453Q27.840325217285155,98.56642252939453,27.828885217285155,98.62389912939453Q27.817455217285158,98.68137512939452,27.795025217285158,98.73551712939454Q27.772605217285157,98.78965812939452,27.740045217285157,98.83838412939453Q27.707485217285157,98.88711012939453,27.666055217285155,98.92854912939453Q27.624615217285157,98.96998712939453,27.575885217285155,99.00254412939454Q27.527155217285156,99.03510212939453,27.473015217285155,99.05752812939453Q27.418875217285155,99.07995412939454,27.361405217285157,99.09138712939453Q27.303925217285155,99.10282012939453,27.245325217285156,99.10282012939453Q27.238565217285156,99.10282012939453,27.231805217285157,99.10266612939454L22.154304117285157,99.10266612939454Z" fill-rule="evenodd" fill="#893AF6" fill-opacity="1" style="mix-blend-mode:passthrough"/></g><g><path d="M106.85307811669922,0.608489603125Q106.85323211669922,0.601731043125,106.85323211669922,0.594970703125Q106.85323211669922,0.536368303125,106.84179911669922,0.478891703125Q106.83036611669922,0.421415703125,106.80794011669921,0.36727370312499996Q106.78551411669922,0.313132703125,106.75295611669922,0.264406703125Q106.72039911669921,0.21568070312499998,106.67896111669921,0.17424170312499998Q106.63752211669922,0.132803703125,106.58879611669921,0.100246703125Q106.54007011669921,0.06768870312499997,106.48592911669923,0.045262703125000026Q106.43178711669921,0.02283670312499997,106.37431111669922,0.011403703125000053Q106.31683451669922,-0.000029296874999973355,106.25823211669922,-0.000029296874999973355Q106.19962971669922,-0.000029296874999973355,106.14215311669922,0.011403703125000053Q106.08467711669923,0.02283670312499997,106.03053511669921,0.045262703125000026Q105.97639411669923,0.06768870312499997,105.92766811669922,0.100246703125Q105.87894211669922,0.132803703125,105.83750311669922,0.17424170312499998Q105.79606511669922,0.21568070312499998,105.76350811669921,0.264406703125Q105.73095011669922,0.313132703125,105.70852411669922,0.36727370312499996Q105.68609811669921,0.421415703125,105.67466511669922,0.478891703125Q105.66323211669922,0.536368303125,105.66323211669922,0.594970703125Q105.66323211669922,0.601731043125,105.66338611669921,0.608489603125L105.66338611669921,5.699090703125Q105.66323211669922,5.705850703125,105.66323211669922,5.712610703125Q105.66323211669922,5.771210703125,105.67466511669922,5.828690703125Q105.68609811669921,5.886160703125,105.70852411669922,5.940300703125Q105.73095011669922,5.994440703125,105.76350811669921,6.043170703125Q105.79606511669922,6.091900703125,105.83750311669922,6.133340703125Q105.87894211669922,6.174770703125,105.92766811669922,6.207330703125Q105.97639411669923,6.239890703125,106.03053511669921,6.262310703125Q106.08467711669923,6.284740703125,106.14215311669922,6.296170703125Q106.19962971669922,6.307610703125,106.25823211669922,6.307610703125Q106.31683451669922,6.307610703125,106.37431111669922,6.296170703125Q106.43178711669921,6.284740703125,106.48592911669923,6.262320703125Q106.54007011669921,6.239890703125,106.58879611669921,6.207330703125Q106.63752211669922,6.174770703125,106.67896111669921,6.133340703125Q106.72039911669921,6.091900703125,106.75295611669922,6.043170703125Q106.78551411669922,5.994440703125,106.80794011669921,5.940300703125Q106.83036611669922,5.886160703125,106.84179911669922,5.828690703125Q106.85323211669922,5.771210703125,106.85323211669922,5.712610703125Q106.85323211669922,5.705850703125,106.85307811669922,5.699090703125L106.85307811669922,0.608489603125Z" fill-rule="evenodd" fill="#893AF6" fill-opacity="1" style="mix-blend-mode:passthrough"/></g><g><path d="M103.71960410507812,3.748520840927124Q103.71284554507812,3.7486748409271238,103.70608520507812,3.7486748409271238Q103.64748280507813,3.7486748409271238,103.59000620507813,3.737241840927124Q103.53253020507813,3.725808840927124,103.47838820507812,3.703382840927124Q103.42424720507813,3.680956840927124,103.37552120507813,3.648398840927124Q103.32679520507813,3.615841840927124,103.28535620507813,3.574403840927124Q103.24391820507813,3.532964840927124,103.21136120507812,3.484238840927124Q103.17880320507813,3.435512840927124,103.15637720507813,3.381371840927124Q103.13395120507812,3.327229840927124,103.12251820507812,3.269753840927124Q103.11108520507813,3.212277240927124,103.11108520507813,3.153674840927124Q103.11108520507813,3.095072440927124,103.12251820507812,3.037595840927124Q103.13395120507812,2.980119840927124,103.15637720507813,2.925977840927124Q103.17880320507813,2.871836840927124,103.21136120507812,2.823110840927124Q103.24391820507813,2.774384840927124,103.28535620507813,2.732945840927124Q103.32679520507813,2.691507840927124,103.37552120507813,2.658950840927124Q103.42424720507813,2.626392840927124,103.47838820507812,2.603966840927124Q103.53253020507813,2.581540840927124,103.59000620507813,2.570107840927124Q103.64748280507813,2.5586748409271243,103.70608520507812,2.5586748409271243Q103.71284554507812,2.5586748409271243,103.71960410507812,2.558828840927124L108.79710520507813,2.558828840927124Q108.80386520507813,2.5586748409271243,108.81062520507813,2.5586748409271243Q108.86922520507812,2.5586748409271243,108.92670520507812,2.570107840927124Q108.98417520507813,2.581540840927124,109.03831520507812,2.603966840927124Q109.09245520507812,2.626392840927124,109.14118520507813,2.658950840927124Q109.18991520507812,2.691507840927124,109.23135520507813,2.732945840927124Q109.27278520507812,2.774384840927124,109.30534520507813,2.823110840927124Q109.33790520507813,2.871836840927124,109.36032520507813,2.925977840927124Q109.38275520507813,2.980119840927124,109.39418520507813,3.037595840927124Q109.40562520507812,3.095072440927124,109.40562520507812,3.153674840927124Q109.40562520507812,3.212277240927124,109.39418520507813,3.269753840927124Q109.38275520507813,3.327229840927124,109.36032520507813,3.381371840927124Q109.33790520507813,3.435512840927124,109.30534520507813,3.484238840927124Q109.27278520507812,3.532964840927124,109.23135520507813,3.574403840927124Q109.18991520507812,3.615841840927124,109.14118520507813,3.648398840927124Q109.09245520507812,3.680956840927124,109.03831520507812,3.703382840927124Q108.98417520507813,3.725808840927124,108.92670520507812,3.737241840927124Q108.86922520507812,3.7486748409271238,108.81062520507813,3.7486748409271238Q108.80386520507813,3.7486748409271238,108.79710520507813,3.748520840927124L103.71960410507812,3.748520840927124Z" fill-rule="evenodd" fill="#893AF6" fill-opacity="1" style="mix-blend-mode:passthrough"/></g><g><path d="M46.41808437280273,15.90183219345703Q46.41823837280273,15.89507363345703,46.41823837280273,15.888313293457031Q46.41823837280273,15.829710893457031,46.40680537280274,15.772234293457032Q46.39537237280273,15.714758293457031,46.37294637280274,15.660616293457032Q46.350520372802734,15.60647529345703,46.31796237280273,15.55774929345703Q46.285405372802735,15.509023293457032,46.243967372802736,15.467584293457032Q46.20252837280273,15.42614629345703,46.15380237280274,15.393589293457032Q46.105076372802735,15.361031293457032,46.05093537280273,15.33860529345703Q45.996793372802735,15.316179293457031,45.93931737280273,15.30474629345703Q45.88184077280273,15.29331329345703,45.823238372802734,15.29331329345703Q45.764635972802736,15.29331329345703,45.707159372802735,15.30474629345703Q45.649683372802734,15.316179293457031,45.595541372802735,15.33860529345703Q45.541400372802734,15.361031293457032,45.49267437280273,15.393589293457032Q45.44394837280274,15.42614629345703,45.40250937280273,15.467584293457032Q45.36107137280273,15.509023293457032,45.328514372802736,15.55774929345703Q45.295956372802735,15.60647529345703,45.27353037280273,15.660616293457032Q45.251104372802736,15.714758293457031,45.23967137280273,15.772234293457032Q45.228238372802736,15.829710893457031,45.228238372802736,15.888313293457031Q45.228238372802736,15.89507363345703,45.22839237280274,15.90183219345703L45.22839237280274,20.992433293457033Q45.228238372802736,20.999193293457033,45.228238372802736,21.005953293457033Q45.228238372802736,21.06455329345703,45.23967137280273,21.12203329345703Q45.251104372802736,21.17950329345703,45.27353037280273,21.233643293457032Q45.295956372802735,21.287783293457032,45.328514372802736,21.33651329345703Q45.36107137280273,21.38524329345703,45.40250937280273,21.42668329345703Q45.44394837280274,21.46811329345703,45.49267437280273,21.50067329345703Q45.541400372802734,21.53323329345703,45.595541372802735,21.55565329345703Q45.649683372802734,21.57808329345703,45.707159372802735,21.58951329345703Q45.764635972802736,21.60095329345703,45.823238372802734,21.60095329345703Q45.88184077280273,21.60095329345703,45.93931737280273,21.58951329345703Q45.996793372802735,21.57808329345703,46.05093537280273,21.55566329345703Q46.105076372802735,21.53323329345703,46.15380237280274,21.50067329345703Q46.20252837280273,21.46811329345703,46.243967372802736,21.42668329345703Q46.285405372802735,21.38524329345703,46.31796237280273,21.33651329345703Q46.350520372802734,21.287783293457032,46.37294637280274,21.233643293457032Q46.39537237280273,21.17950329345703,46.40680537280274,21.12203329345703Q46.41823837280273,21.06455329345703,46.41823837280273,21.005953293457033Q46.41823837280273,20.999193293457033,46.41808437280273,20.992433293457033L46.41808437280273,15.90183219345703Z" fill-rule="evenodd" fill="#893AF6" fill-opacity="1" style="mix-blend-mode:passthrough"/></g><g><path d="M43.27262458237305,19.041861762329102Q43.26586602237305,19.0420157623291,43.25910568237305,19.0420157623291Q43.20050328237305,19.0420157623291,43.14302668237305,19.0305827623291Q43.08555068237305,19.0191497623291,43.03140868237305,18.9967237623291Q42.977267682373046,18.9742977623291,42.928541682373044,18.941739762329103Q42.87981568237305,18.909182762329102,42.838376682373045,18.867744762329103Q42.796938682373046,18.826305762329103,42.76438168237305,18.7775797623291Q42.73182368237305,18.728853762329102,42.709397682373044,18.6747127623291Q42.68697168237305,18.620570762329102,42.675538682373045,18.5630947623291Q42.66410568237305,18.505618162329103,42.66410568237305,18.4470157623291Q42.66410568237305,18.3884133623291,42.675538682373045,18.330936762329102Q42.68697168237305,18.2734607623291,42.709397682373044,18.219318762329102Q42.73182368237305,18.1651777623291,42.76438168237305,18.116451762329103Q42.796938682373046,18.0677257623291,42.838376682373045,18.0262867623291Q42.87981568237305,17.9848487623291,42.928541682373044,17.9522917623291Q42.977267682373046,17.919733762329102,43.03140868237305,17.897307762329103Q43.08555068237305,17.874881762329103,43.14302668237305,17.863448762329103Q43.20050328237305,17.852015762329103,43.25910568237305,17.852015762329103Q43.26586602237305,17.852015762329103,43.27262458237305,17.8521697623291L48.36186568237305,17.8521697623291Q48.36862568237305,17.852015762329103,48.37538568237305,17.852015762329103Q48.43398568237305,17.852015762329103,48.49146568237305,17.863448762329103Q48.548945682373045,17.874881762329103,48.60308568237305,17.897307762329103Q48.657225682373046,17.919733762329102,48.705955682373045,17.9522917623291Q48.75467568237305,17.9848487623291,48.79611568237305,18.0262867623291Q48.83755568237305,18.0677257623291,48.87011568237305,18.116451762329103Q48.90266568237305,18.1651777623291,48.92509568237305,18.219318762329102Q48.94752568237305,18.2734607623291,48.958955682373045,18.330936762329102Q48.97038568237305,18.3884133623291,48.97038568237305,18.4470157623291Q48.97038568237305,18.505618162329103,48.958955682373045,18.5630947623291Q48.94752568237305,18.620570762329102,48.92509568237305,18.6747127623291Q48.90266568237305,18.728853762329102,48.87011568237305,18.7775797623291Q48.83755568237305,18.826305762329103,48.79611568237305,18.867744762329103Q48.75467568237305,18.909182762329102,48.705955682373045,18.941739762329103Q48.657225682373046,18.9742977623291,48.60308568237305,18.9967237623291Q48.548945682373045,19.0191497623291,48.49146568237305,19.0305827623291Q48.43398568237305,19.0420157623291,48.37538568237305,19.0420157623291Q48.36862568237305,19.0420157623291,48.36186568237305,19.041861762329102L43.27262458237305,19.041861762329102Z" fill-rule="evenodd" fill="#893AF6" fill-opacity="1" style="mix-blend-mode:passthrough"/></g><g><path d="M120.20653551513672,33.49051467956543Q120.20653551513672,33.55014467956543,120.20070551513672,33.60949467956543Q120.19487551513672,33.66884467956543,120.18327551513671,33.72733467956543Q120.17166551513672,33.785814679565426,120.15440551513672,33.84288467956543Q120.13713551513672,33.89995467956543,120.11437551513671,33.95504467956543Q120.09160551513672,34.01014467956543,120.06356551513672,34.06273467956543Q120.03552551513673,34.11532467956543,120.00248551513671,34.16491467956543Q119.96943551513672,34.214494679565426,119.93170551513671,34.26059467956543Q119.89396551513671,34.30669467956543,119.85190551513672,34.34886467956543Q119.80984551513671,34.39102467956543,119.76386551513671,34.42886467956543Q119.71788551513671,34.46669467956543,119.66842551513672,34.49982467956543Q119.61897551513673,34.53295467956543,119.56651551513671,34.56106467956543Q119.51405551513672,34.58917467956543,119.45909551513672,34.61199467956543Q119.40414551513672,34.634824679565426,119.34722551513671,34.65213467956543Q119.29030551513672,34.66944467956543,119.23196551513672,34.68107467956543Q119.17362551513672,34.69271467956543,119.11442551513672,34.69855467956543Q119.05523551513672,34.70440467956543,118.99575551513672,34.70440467956543Q118.93626551513672,34.70440467956543,118.87707551513672,34.69855467956543Q118.81787551513672,34.69271467956543,118.75953951513672,34.68107467956543Q118.70119951513672,34.66944467956543,118.64427951513672,34.65213467956543Q118.58735851513671,34.634824679565426,118.53240351513672,34.61199467956543Q118.47744951513671,34.58917467956543,118.42499151513672,34.56106467956543Q118.37253251513673,34.53295467956543,118.32307451513672,34.49982467956543Q118.27361751513672,34.46669467956543,118.22763751513672,34.42886467956543Q118.18165651513672,34.39102467956543,118.13959651513672,34.34886467956543Q118.09753651513672,34.30669467956543,118.05980151513671,34.26059467956543Q118.02206651513671,34.214494679565426,117.98901951513672,34.16491467956543Q117.95597351513672,34.11532467956543,117.92793351513671,34.06273467956543Q117.89989351513672,34.01014467956543,117.87713111513672,33.95504467956543Q117.85436831513672,33.89995467956543,117.83710151513672,33.84288467956543Q117.81983481513672,33.785814679565426,117.80823041513672,33.72733467956543Q117.79662601513672,33.66884467956543,117.79079578513672,33.60949467956543Q117.78496551513672,33.55014467956543,117.78496551513672,33.49051467956543Q117.78496551513672,33.43087467956543,117.79079578513672,33.37153467956543Q117.79662601513672,33.312184679565426,117.80823041513672,33.25369467956543Q117.81983481513672,33.19520667956543,117.83710151513672,33.13813967956543Q117.85436831513672,33.08107267956543,117.87713111513672,33.02597767956543Q117.89989351513672,32.97088267956543,117.92793351513671,32.91828967956543Q117.95597351513672,32.86569667956543,117.98901951513672,32.81611267956543Q118.02206651513671,32.76652867956543,118.05980151513671,32.72043067956543Q118.09753651513672,32.67433267956543,118.13959651513672,32.63216467956543Q118.18165651513672,32.58999667956543,118.22763751513672,32.55216467956543Q118.27361751513672,32.51433267956543,118.32307451513672,32.48120167956543Q118.37253251513673,32.44807067956543,118.42499151513672,32.41995867956543Q118.47744951513671,32.39184767956543,118.53240351513672,32.36902637956543Q118.58735851513671,32.34620527956543,118.64427951513672,32.32889427956543Q118.70119951513672,32.31158327956543,118.75953951513672,32.29994917956543Q118.81787551513672,32.28831507956543,118.87707551513672,32.28246987956543Q118.93626551513672,32.27662467956543,118.99575551513672,32.27662467956543Q119.05523551513672,32.27662467956543,119.11442551513672,32.28246987956543Q119.17362551513672,32.28831507956543,119.23196551513672,32.29994917956543Q119.29030551513672,32.31158327956543,119.34722551513671,32.32889427956543Q119.40414551513672,32.34620527956543,119.45909551513672,32.36902637956543Q119.51405551513672,32.39184767956543,119.56651551513671,32.41995867956543Q119.61897551513673,32.44807067956543,119.66842551513672,32.48120167956543Q119.71788551513671,32.51433267956543,119.76386551513671,32.55216467956543Q119.80984551513671,32.58999667956543,119.85190551513672,32.63216467956543Q119.89396551513671,32.67433267956543,119.93170551513671,32.72043067956543Q119.96943551513672,32.76652867956543,120.00248551513671,32.81611267956543Q120.03552551513673,32.86569667956543,120.06356551513672,32.91828967956543Q120.09160551513672,32.97088267956543,120.11437551513671,33.02597767956543Q120.13713551513672,33.08107267956543,120.15440551513672,33.13813967956543Q120.17166551513672,33.19520667956543,120.18327551513671,33.25369467956543Q120.19487551513672,33.312184679565426,120.20070551513672,33.37153467956543Q120.20653551513672,33.43087467956543,120.20653551513672,33.49051467956543Z" fill="#FFFFFF" fill-opacity="1" style="mix-blend-mode:passthrough"/><path d="M117.71858051513672,32.21208827956543Q117.19011951513671,32.74183667956543,117.19011951513671,33.49051467956543Q117.19011951513671,34.23919467956543,117.71858181513672,34.76894467956543Q118.24760251513672,35.29924467956543,118.99575551513672,35.29924467956543Q119.74389551513671,35.29924467956543,120.27291551513672,34.76894467956543Q120.80138551513672,34.23918467956543,120.80138551513672,33.49051467956543Q120.80138551513672,32.74183667956543,120.27292551513672,32.21208817956543Q119.74390551513672,31.68177767956543,118.99575551513672,31.68177767956543Q118.24760151513672,31.68177867956543,117.71858051513672,32.21208827956543ZM118.56084151513672,33.92872467956543Q118.37981151513672,33.74725467956543,118.37981151513672,33.49051467956543Q118.37981251513672,33.23377567956543,118.56084351513672,33.05230467956543Q118.74123651513672,32.87147067956543,118.99575551513672,32.87147067956543Q119.25026551513672,32.87147067956543,119.43066551513672,33.05230467956543Q119.61169551513672,33.23377567956543,119.61169551513672,33.49051467956543Q119.61169551513672,33.747244679565426,119.43065551513672,33.92872467956543Q119.25025551513671,34.10955467956543,118.99575551513672,34.10955467956543Q118.74123451513672,34.10955467956543,118.56084151513672,33.92872467956543Z" fill-rule="evenodd" fill="#893AF6" fill-opacity="1" style="mix-blend-mode:passthrough"/></g><g><path d="M74.90711670654296,22.62439075500488Q74.90711670654296,22.681690755004883,74.90151670654296,22.73871075500488Q74.89590670654297,22.795730755004882,74.88475670654297,22.851930755004883Q74.87360670654297,22.908130755004883,74.85701670654296,22.962960755004882Q74.84042670654297,23.01779075500488,74.81855670654296,23.07072075500488Q74.79668670654297,23.123660755004884,74.76974670654297,23.174190755004883Q74.74280670654296,23.22472075500488,74.71105670654296,23.272360755004883Q74.67930670654297,23.320010755004883,74.64304670654298,23.364300755004884Q74.60679670654297,23.408590755004884,74.56637670654297,23.44910075500488Q74.52596670654297,23.489620755004882,74.48178670654296,23.525970755004884Q74.43760670654297,23.562320755004883,74.39008670654297,23.594150755004883Q74.34257670654297,23.625980755004882,74.29216670654297,23.652990755004883Q74.24176670654298,23.680000755004883,74.18896670654297,23.701930755004884Q74.13616670654297,23.723860755004882,74.08147670654297,23.740490755004885Q74.02678670654296,23.757120755004884,73.97072670654296,23.768300755004883Q73.91467670654296,23.779480755004883,73.85780670654297,23.785100755004883Q73.80092670654297,23.790710755004884,73.74377670654297,23.790710755004884Q73.68662670654297,23.790710755004884,73.62974670654297,23.785100755004883Q73.57287270654297,23.779480755004883,73.51681970654298,23.768300755004883Q73.46076670654297,23.757120755004884,73.40607570654296,23.740490755004885Q73.35138570654297,23.723860755004882,73.29858470654297,23.701930755004884Q73.24578370654297,23.680000755004883,73.19538170654297,23.652990755004883Q73.14497870654297,23.625980755004882,73.09745870654297,23.594150755004883Q73.04993970654297,23.562320755004883,73.00576070654297,23.525970755004884Q72.96158270654297,23.489620755004882,72.92117070654297,23.44910075500488Q72.88075870654296,23.408590755004884,72.84450270654297,23.364300755004884Q72.80824570654296,23.320010755004883,72.77649470654296,23.272360755004883Q72.74474270654297,23.22472075500488,72.71780270654297,23.174190755004883Q72.69086170654298,23.123660755004884,72.66899060654296,23.07072075500488Q72.64711980654297,23.01779075500488,72.63052970654297,22.962960755004882Q72.61393960654297,22.908130755004883,72.60278990654297,22.851930755004883Q72.59164030654297,22.795730755004882,72.58603849654297,22.73871075500488Q72.58043670654297,22.681690755004883,72.58043670654297,22.62439075500488Q72.58043670654297,22.567090755004884,72.58603849654297,22.510070755004882Q72.59164030654297,22.45305075500488,72.60278990654297,22.396853755004884Q72.61393960654297,22.340656755004883,72.63052970654297,22.285826755004884Q72.64711980654297,22.230995755004884,72.66899060654296,22.17805975500488Q72.69086170654298,22.125123755004882,72.71780270654297,22.07459175500488Q72.74474270654297,22.02405975500488,72.77649470654296,21.976418755004882Q72.80824570654296,21.928776755004883,72.84450270654297,21.88448575500488Q72.88075870654296,21.840193755004883,72.92117070654297,21.799677755004883Q72.96158270654297,21.759162755004883,73.00576070654297,21.722813755004882Q73.04993970654297,21.686463755004883,73.09745870654297,21.654630755004884Q73.14497870654297,21.622798755004883,73.19538170654297,21.595788755004882Q73.24578370654297,21.56877875500488,73.29858470654297,21.546851655004883Q73.35138570654297,21.524924755004882,73.40607570654296,21.508292155004884Q73.46076670654297,21.491659455004882,73.51681970654298,21.480481255004882Q73.57287270654297,21.469303055004882,73.62974670654297,21.463686905004884Q73.68662670654297,21.458070755004883,73.74377670654297,21.458070755004883Q73.80092670654297,21.458070755004883,73.85780670654297,21.463686905004884Q73.91467670654296,21.469303055004882,73.97072670654296,21.480481255004882Q74.02678670654296,21.491659455004882,74.08147670654297,21.508292155004884Q74.13616670654297,21.524924755004882,74.18896670654297,21.546851655004883Q74.24176670654298,21.56877875500488,74.29216670654297,21.595788755004882Q74.34257670654297,21.622798755004883,74.39008670654297,21.654630755004884Q74.43760670654297,21.686463755004883,74.48178670654296,21.722813755004882Q74.52596670654297,21.759162755004883,74.56637670654297,21.799677755004883Q74.60679670654297,21.840193755004883,74.64304670654298,21.88448575500488Q74.67930670654297,21.928776755004883,74.71105670654296,21.976418755004882Q74.74280670654296,22.02405975500488,74.76974670654297,22.07459175500488Q74.79668670654297,22.125123755004882,74.81855670654296,22.17805975500488Q74.84042670654297,22.230995755004884,74.85701670654296,22.285826755004884Q74.87360670654297,22.340656755004883,74.88475670654297,22.396853755004884Q74.89590670654297,22.45305075500488,74.90151670654296,22.510070755004882Q74.90711670654296,22.567090755004884,74.90711670654296,22.62439075500488Z" fill="#893AF6" fill-opacity="1" style="mix-blend-mode:passthrough"/></g><g><path d="M82.71812134521484,107.26735844238281Q82.71812134521484,107.32465844238281,82.71252134521484,107.3816784423828Q82.70692134521484,107.43869844238282,82.69577134521484,107.49489844238282Q82.68462134521485,107.5510884423828,82.66803134521484,107.60591844238282Q82.65144134521485,107.66075844238281,82.62957134521484,107.71368844238282Q82.60770134521485,107.76662844238281,82.58076134521484,107.81715844238282Q82.55382134521484,107.86768844238281,82.52207134521484,107.91532844238282Q82.49031134521485,107.9629784423828,82.45406134521484,108.00726844238281Q82.41780134521484,108.05155844238281,82.37739134521485,108.09207844238281Q82.33698134521484,108.13258844238281,82.29280134521484,108.16893844238281Q82.24862134521484,108.20528844238281,82.20110134521484,108.23711844238281Q82.15358134521485,108.26895844238281,82.10318134521485,108.29596844238282Q82.05278134521484,108.32297844238282,81.99997134521485,108.34489844238281Q81.94717134521484,108.36682844238281,81.89248134521485,108.38345844238282Q81.83779134521484,108.40009844238281,81.78174134521484,108.4112684423828Q81.72569134521484,108.42244844238282,81.66881134521485,108.42806844238281Q81.61193134521484,108.43368844238282,81.55478134521485,108.43368844238282Q81.49763134521484,108.43368844238282,81.44075134521485,108.42806844238281Q81.38388034521485,108.42244844238282,81.32782734521484,108.4112684423828Q81.27177334521484,108.40009844238281,81.21708334521485,108.38345844238282Q81.16239234521484,108.36682844238281,81.10959134521484,108.34489844238281Q81.05679034521485,108.32297844238282,81.00638734521485,108.29596844238282Q80.95598434521484,108.26895844238281,80.90846534521485,108.23711844238281Q80.86094534521484,108.20528844238281,80.81676734521484,108.16893844238281Q80.77258834521484,108.13258844238281,80.73217634521484,108.09207844238281Q80.69176434521485,108.05155844238281,80.65550834521484,108.00726844238281Q80.61925134521485,107.9629784423828,80.58750034521485,107.91532844238282Q80.55574834521484,107.86768844238281,80.52880734521484,107.81715844238282Q80.50186634521485,107.76662844238281,80.47999554521485,107.71368844238282Q80.45812464521484,107.66075844238281,80.44153444521484,107.60591844238282Q80.42494434521484,107.5510884423828,80.41379464521485,107.49489844238282Q80.40264494521485,107.43869844238282,80.39704315521485,107.3816784423828Q80.39144134521484,107.32465844238281,80.39144134521484,107.26735844238281Q80.39144134521484,107.21005844238282,80.39704315521485,107.15303844238281Q80.40264494521485,107.09601444238281,80.41379464521485,107.03981644238281Q80.42494434521484,106.98361944238282,80.44153444521484,106.92878944238281Q80.45812464521484,106.87395844238281,80.47999554521485,106.82102144238281Q80.50186634521485,106.76808544238281,80.52880734521484,106.71755344238281Q80.55574834521484,106.6670204423828,80.58750034521485,106.61937944238281Q80.61925134521485,106.57173744238281,80.65550834521484,106.52744544238281Q80.69176434521485,106.48315344238281,80.73217634521484,106.44263744238282Q80.77258834521484,106.40212244238282,80.81676734521484,106.3657724423828Q80.86094534521484,106.32942344238282,80.90846534521485,106.29759044238281Q80.95598534521484,106.2657574423828,81.00638834521484,106.23874644238282Q81.05679034521485,106.21173644238281,81.10959134521484,106.18980984238281Q81.16239234521484,106.16788284238281,81.21708334521485,106.1512501423828Q81.27177334521484,106.13461734238281,81.32782634521485,106.12343914238281Q81.38388034521485,106.11226084238281,81.44075134521485,106.10664463238281Q81.49763134521484,106.10102844238281,81.55478134521485,106.10102844238281Q81.61193134521484,106.10102844238281,81.66881134521485,106.10664463238281Q81.72569134521484,106.11226084238281,81.78174134521484,106.12343914238281Q81.83779134521484,106.13461734238281,81.89248134521485,106.1512501423828Q81.94717134521484,106.16788284238281,81.99997134521485,106.18980984238281Q82.05277134521485,106.21173644238281,82.10318134521485,106.23874644238282Q82.15358134521485,106.2657574423828,82.20110134521484,106.29759044238281Q82.24862134521484,106.32942344238282,82.29280134521484,106.3657724423828Q82.33698134521484,106.40212244238282,82.37739134521485,106.44263744238282Q82.41780134521484,106.48315344238281,82.45406134521484,106.52744544238281Q82.49031134521485,106.57173744238281,82.52207134521484,106.61937944238281Q82.55382134521484,106.6670204423828,82.58076134521484,106.71755344238281Q82.60770134521485,106.76808544238281,82.62957134521484,106.82102144238281Q82.65144134521485,106.87395844238281,82.66803134521484,106.92878944238281Q82.68462134521485,106.98361944238282,82.69577134521484,107.03981644238281Q82.70692134521484,107.09601444238281,82.71252134521484,107.15303844238281Q82.71812134521484,107.21005844238282,82.71812134521484,107.26735844238281Z" fill="#CFCFCF" fill-opacity="1" style="mix-blend-mode:passthrough"/></g></g></g></g></g></svg>