<svg xmlns="http://www.w3.org/2000/svg" xmlns:xlink="http://www.w3.org/1999/xlink" fill="none" version="1.1" width="38" height="38" viewBox="0 0 38 38"><defs><clipPath id="master_svg0_162_08488"><rect x="0" y="0" width="38" height="38" rx="0"/></clipPath></defs><g clip-path="url(#master_svg0_162_08488)"><g><ellipse cx="28.5" cy="31.666748046875" rx="4.75" ry="4.75" fill="#D268FC" fill-opacity="1"/></g><g><path d="M20.752037109375,2.4604461875C10.186957109375001,1.3768521875,1.369768109375,10.194037187500001,2.453361809375,20.7591171875C3.206682109375,28.0993171875,9.897497109375,34.7901171875,17.237737109375,35.5434171875C27.802737109375,36.6270171875,36.619937109375,27.8098171875,35.536337109375,17.2448171875C34.783037109375,9.904587187499999,28.092237109375,3.2137661875,20.752037109375,2.4604461875ZM30.875437109375,11.0809571875L32.460037109375,14.2501171875C30.337337109375,13.8493171875,29.751037109375,13.8679171875,27.706237109375,14.2501171875C26.496537109375,14.5692171875,25.865637109375,15.4339171875,25.568737109375,16.0276171875C25.416637109375,16.3319171875,25.342437109375,16.669617187500002,25.357237109375,17.011017187500002C25.398037109375,18.0204171875,25.357237109375,20.7182171875,23.746737109375,21.3788171875C23.034237109375,21.6720171875,22.162137109375,20.6700171875,22.162137109375,19.7942171875C22.273437109375,14.8030171875,24.529737109375,13.8270171875,25.145737109375,13.5079171875Q25.791437109375,13.1739171875,27.706237109375,11.8750971875Q29.094137109375,11.1700171875,30.875437109375,11.0809571875ZM11.868007109375,7.1213871875L12.858837109375,8.112207187500001C13.122337109375,8.3756771875,13.055537109375,8.8209971875,12.725237109375,8.9954071875C11.808637109375,9.4852471875,10.186957109375001,10.7469671875,8.839887109374999,13.9087171875C8.750817109375,14.1128171875,8.550427109375,14.2464171875,8.327777109374999,14.2464171875L6.323867109375,14.2464171875C6.323867109375,14.2501171875,6.457467109375,10.0678671875,11.868007109375,7.1213871875ZM11.704727109375,31.2016171875L8.160787109375,28.2329171875C8.561567109375,27.4313171875,9.403947109375,26.8932171875,10.368787109375,26.9229171875C11.604527109375,26.9638171875,12.613937109375,27.9657171875,12.662137109375,29.2015171875C12.688137109375,30.0216171875,12.305897109375,30.7526171875,11.704727109375,31.2016171875ZM18.993037109375,33.2575171875C17.208037109375,33.2575171875,15.508437109375,32.9161171875,13.935037109375,32.318617187499996C14.614137109375,31.4948171875,15.033437109375,30.4483171875,15.033437109375,29.2979171875C15.033437109375,26.6743171875,12.907037109375,24.5442171875,10.279727109375,24.5442171875C8.847307109375,24.5442171875,7.567037109375,25.1862171875,6.694967109375,26.1882171875C5.4555071093750005,24.0766171875,4.735587109375,21.6237171875,4.735587109375,19.0001171875C4.735587109375,18.4063171875,4.783827109375,17.8237171875,4.854337109375,17.2448171875L10.205507109374999,16.7104171875C10.691637109375,16.662217187499998,11.088707109375,16.3059171875,11.185197109375,15.8272171875C11.860587109375,12.5245171875,14.829337109375,10.4315371875,16.681137109375,9.422167187500001C17.371337109375,9.047357187500001,17.464137109375002,8.0936471875,16.862937109375,7.5889571875L14.380337109375,5.5219671875C15.827537109375,5.0247071875,17.375037109375,4.7463871875,18.993037109375,4.7463871875C22.882037109375,4.7463871875,26.403737109375,6.3086871875,28.975437109375,8.8321271875L25.524237109375,10.2125971875Q17.408437109375,14.3800171875,19.787137109375,20.5847171875C20.585037109375,22.4475171875,22.017437109375,23.5905171875,23.319937109375,23.5905171875C26.195937109375,23.5905171875,27.843637109375,21.0300171875,27.706337109375,17.4155171875C28.244337109375,16.8626171875,28.411337109375,16.884817187499998,29.290837109375,16.625117187500003C31.135237109375,16.3171171875,31.740037109375,16.8737171875,33.153937109375,17.3784171875C33.213337109375004,17.9128171875,33.254137109375,18.4509171875,33.254137109375,19.0001171875C33.250437109375,26.8747171875,26.867637109375,33.2575171875,18.993037109375,33.2575171875Z" fill="#FFFFFF" fill-opacity="1" style="mix-blend-mode:passthrough"/></g></g></svg>