<svg xmlns="http://www.w3.org/2000/svg" xmlns:xlink="http://www.w3.org/1999/xlink" fill="none" version="1.1" width="24" height="24" viewBox="0 0 24 24"><defs><clipPath id="master_svg0_43_01646"><rect x="0" y="0" width="24" height="24" rx="0"/></clipPath></defs><g clip-path="url(#master_svg0_43_01646)"><g><path d="M18.7479515625,7.19109375L18.7479515625,3.90234375L5.2826515625,3.90234375L5.2826515625,7.19109375L10.2468715625,7.19109375L10.2468715625,9.339723750000001C6.2115215625,9.52120375,3.1728515625,10.31667375,3.1728515625,11.27107375C3.1728515625,12.22549375,6.2115015625000005,13.02091375,10.2468715625,13.20241375L10.2468715625,20.09794375L13.7837515625,20.09794375L13.7837515625,13.20079375C17.803551562499997,13.01657375,20.8267515625,12.22256375,20.8267515625,11.27104375C20.8267515625,10.319413749999999,17.803551562499997,9.52514375,13.7837515625,9.34115375L13.7837515625,7.19107375L18.7479515625,7.19109375L18.7479515625,7.19109375ZM19.3064515625,11.076773750000001C19.3064515625,11.70447375,16.9568515625,12.23100375,13.7837515625,12.37718375L13.5786515625,12.38587375L13.5560515625,12.38587375L13.3637515625,12.39295375L13.3429515625,12.39295375C13.1999515625,12.39785375,13.0551615625,12.40204375,12.9085815625,12.40535375L12.8994815625,12.40535375L12.7028715625,12.40942375L12.6473015625,12.40942375L12.4921415625,12.41151375L11.5095715625,12.41151375L11.3560115625,12.40942375L11.3026715625,12.40942375L11.1192215625,12.40558375L11.099061562500001,12.40558375C10.8816315625,12.40073375,10.6674915625,12.39403375,10.4565015625,12.38587375L10.4537415625,12.38587375L10.2436915625,12.37678375C7.0547615624999995,12.23282375,4.6899915624999995,11.70447375,4.6899915624999995,11.07377375C4.6899915624999995,10.44292375,7.0551615625,9.91614375,10.2436915625,9.77060375L10.2436915625,11.76529375C10.7972115625,11.79414375,11.3860315625,11.80996375,11.9967215625,11.80996375C12.6171315625,11.80996375,13.2178515625,11.793893749999999,13.7806515625,11.763703750000001L13.7806515625,9.776533749999999C16.9565515625,9.92233375,19.3064515625,10.44911375,19.3064515625,11.076773750000001Z" fill="#F6C561" fill-opacity="1" style="mix-blend-mode:passthrough"/></g></g></svg>