<svg xmlns="http://www.w3.org/2000/svg" xmlns:xlink="http://www.w3.org/1999/xlink" fill="none" version="1.1" width="38" height="38" viewBox="0 0 38 38"><g><g><ellipse cx="31.666748046875" cy="6.333251953125" rx="4.75" ry="4.75" fill="#D268FC" fill-opacity="1"/></g><g><g><g><g><path d="M33.313448046874996,32.363448046875C33.313448046874996,32.363448046875,34.192748046874996,33.161448046875,34.192748046874996,33.161448046875C34.192748046874996,33.161448046875,34.193248046875,33.160748046875,34.193248046875,33.160748046875C34.193248046875,33.160748046875,33.313448046874996,32.363448046875,33.313448046874996,32.363448046875C33.313448046874996,32.363448046875,33.313448046874996,32.363448046875,33.313448046874996,32.363448046875ZM30.716748046875,34.231748046875C30.716748046875,34.231748046875,30.266448046875,33.132948046875,30.266448046875,33.132948046875C30.266448046875,33.132948046875,30.259948046875,33.135648046875005,30.259948046875,33.135648046875005C30.259948046875,33.135648046875005,30.716748046875,34.231748046875,30.716748046875,34.231748046875C30.716748046875,34.231748046875,30.716748046875,34.231748046875,30.716748046875,34.231748046875ZM17.020948046875,30.542548046875C17.020948046875,30.542548046875,16.320448046875,31.501448046875,16.320448046875,31.501448046875C16.320448046875,31.501448046875,16.321948046875,31.502548046875,16.321948046875,31.502548046875C16.321948046875,31.502548046875,17.020948046875,30.542548046875,17.020948046875,30.542548046875C17.020948046875,30.542548046875,17.020948046875,30.542548046875,17.020948046875,30.542548046875ZM11.827578046875,26.109248046875C11.827578046875,26.109248046875,10.983808046875,26.944948046875,10.983808046875,26.944948046875C10.983808046875,26.944948046875,10.991958046875,26.953048046875,10.991958046875,26.953048046875C10.991958046875,26.953048046875,11.827578046875,26.109248046875,11.827578046875,26.109248046875C11.827578046875,26.109248046875,11.827578046875,26.109248046875,11.827578046875,26.109248046875ZM7.410078046875,20.931748046875C7.410078046875,20.931748046875,6.446048046875,21.625248046875,6.446048046875,21.625248046875C6.446048046875,21.625248046875,6.450078046874999,21.630648046875,6.450078046874999,21.630648046875C6.450078046874999,21.630648046875,7.410078046875,20.931748046875,7.410078046875,20.931748046875C7.410078046875,20.931748046875,7.410078046875,20.931748046875,7.410078046875,20.931748046875ZM4.306748046875,15.532548046875C4.306748046875,15.532548046875,3.212300546875,15.993348046875,3.212300546875,15.993348046875C3.212300546875,15.993348046875,3.213768146875,15.996848046875,3.213768146875,15.996848046875C3.213768146875,15.996848046875,4.306748046875,15.532548046875,4.306748046875,15.532548046875C4.306748046875,15.532548046875,4.306748046875,15.532548046875,4.306748046875,15.532548046875ZM3.736748046875,7.299248046875C3.736748046875,7.299248046875,4.839338046875,7.740288046875,4.839338046875,7.740288046875C4.839338046875,7.740288046875,4.841788046875,7.734018046875,4.841788046875,7.734018046875C4.841788046875,7.734018046875,3.736748046875,7.299248046875,3.736748046875,7.299248046875C3.736748046875,7.299248046875,3.736748046875,7.299248046875,3.736748046875,7.299248046875ZM5.557578046874999,4.6550780468749995C5.557578046874999,4.6550780468749995,6.372478046875,5.518868046875,6.372478046875,5.518868046875C6.372478046875,5.518868046875,6.3816380468750005,5.510208046875,6.3816380468750005,5.510208046875C6.3816380468750005,5.510208046875,6.390638046875,5.501358046875,6.390638046875,5.501358046875C6.390638046875,5.501358046875,5.557578046874999,4.6550780468749995,5.557578046874999,4.6550780468749995C5.557578046874999,4.6550780468749995,5.557578046874999,4.6550780468749995,5.557578046874999,4.6550780468749995ZM10.133418046875,3.451748046875C10.133418046875,3.451748046875,9.619478046874999,4.5224280468749996,9.619478046874999,4.5224280468749996C9.619478046874999,4.5224280468749996,9.635788046875,4.529948046875,9.635788046875,4.529948046875C9.635788046875,4.529948046875,10.133418046875,3.451748046875,10.133418046875,3.451748046875C10.133418046875,3.451748046875,10.133418046875,3.451748046875,10.133418046875,3.451748046875ZM11.194248046875,4.338418046875C11.194248046875,4.338418046875,10.217838046875,5.014398046875,10.217838046875,5.014398046875C10.217838046875,5.014398046875,10.225738046875,5.0255480468750005,10.225738046875,5.0255480468750005C10.225738046875,5.0255480468750005,11.194248046875,4.338418046875,11.194248046875,4.338418046875C11.194248046875,4.338418046875,11.194248046875,4.338418046875,11.194248046875,4.338418046875ZM14.867548046875,9.515918046875C14.867548046875,9.515918046875,13.899048046875,10.203068046875,13.899048046875,10.203068046875C13.899048046875,10.203068046875,13.903848046875,10.209778046875,13.903848046875,10.209778046875C13.903848046875,10.209778046875,14.867548046875,9.515918046875,14.867548046875,9.515918046875C14.867548046875,9.515918046875,14.867548046875,9.515918046875,14.867548046875,9.515918046875ZM15.500948046875,10.624248046875C15.500948046875,10.624248046875,14.401648046875,11.073928046875,14.401648046875,11.073928046875C14.401648046875,11.073928046875,14.409448046875,11.092028046875,14.409448046875,11.092028046875C14.409448046875,11.092028046875,15.500948046875,10.624248046875,15.500948046875,10.624248046875C15.500948046875,10.624248046875,15.500948046875,10.624248046875,15.500948046875,10.624248046875ZM15.390048046875,12.714248046875C15.390048046875,12.714248046875,14.375748046875,12.096808046875,14.375748046875,12.096808046875C14.375748046875,12.096808046875,14.365748046875,12.113218046875,14.365748046875,12.113218046875C14.365748046875,12.113218046875,14.356248046875,12.129938046875,14.356248046875,12.129938046875C14.356248046875,12.129938046875,15.390048046875,12.714248046875,15.390048046875,12.714248046875C15.390048046875,12.714248046875,15.390048046875,12.714248046875,15.390048046875,12.714248046875ZM14.503448046875,13.838448046875C14.503448046875,13.838448046875,13.663748046875,12.998728046875,13.663748046875,12.998728046875C13.663748046875,12.998728046875,13.655648046875,13.006848046875,13.655648046875,13.006848046875C13.655648046875,13.006848046875,13.647648046875,13.015128046875,13.647648046875,13.015128046875C13.647648046875,13.015128046875,14.503448046875,13.838448046875,14.503448046875,13.838448046875C14.503448046875,13.838448046875,14.503448046875,13.838448046875,14.503448046875,13.838448046875ZM13.300048046875,15.089248046875C13.300048046875,15.089248046875,14.139748046875,15.928948046875,14.139748046875,15.928948046875C14.139748046875,15.928948046875,14.147848046875,15.920848046875,14.147848046875,15.920848046875C14.147848046875,15.920848046875,14.155848046875,15.912548046875,14.155848046875,15.912548046875C14.155848046875,15.912548046875,13.300048046875,15.089248046875,13.300048046875,15.089248046875C13.300048046875,15.089248046875,13.300048046875,15.089248046875,13.300048046875,15.089248046875ZM13.094248046875,16.086748046875C13.094248046875,16.086748046875,11.942198046875,16.374748046875,11.942198046875,16.374748046875C11.942198046875,16.374748046875,11.958598046875,16.440348046875002,11.958598046875,16.440348046875002C11.958598046875,16.440348046875002,11.982348046875,16.503748046875,11.982348046875,16.503748046875C11.982348046875,16.503748046875,13.094248046875,16.086748046875,13.094248046875,16.086748046875C13.094248046875,16.086748046875,13.094248046875,16.086748046875,13.094248046875,16.086748046875ZM13.220948046875,16.403448046875C13.220948046875,16.403448046875,12.094358046875,16.778948046875,12.094358046875,16.778948046875C12.094358046875,16.778948046875,12.127778046875,16.879248046875,12.127778046875,16.879248046875C12.127778046875,16.879248046875,12.178418046875,16.972048046875003,12.178418046875,16.972048046875003C12.178418046875,16.972048046875003,13.220948046875,16.403448046875,13.220948046875,16.403448046875C13.220948046875,16.403448046875,13.220948046875,16.403448046875,13.220948046875,16.403448046875ZM14.693448046875,18.430048046875C14.693448046875,18.430048046875,13.786848046875,19.197248046875,13.786848046875,19.197248046875C13.786848046875,19.197248046875,13.795448046875,19.207148046875,13.795448046875,19.207148046875C13.795448046875,19.207148046875,14.693448046875,18.430048046875,14.693448046875,18.430048046875C14.693448046875,18.430048046875,14.693448046875,18.430048046875,14.693448046875,18.430048046875ZM16.989248046874998,20.931748046875C16.989248046874998,20.931748046875,16.141548046875002,21.763448046875,16.141548046875002,21.763448046875C16.141548046875002,21.763448046875,16.149448046875,21.771348046875,16.149448046875,21.771348046875C16.149448046875,21.771348046875,16.157448046875,21.779348046875,16.157448046875,21.779348046875C16.157448046875,21.779348046875,16.989248046874998,20.931748046875,16.989248046874998,20.931748046875C16.989248046874998,20.931748046875,16.989248046874998,20.931748046875,16.989248046874998,20.931748046875ZM19.506748046875,23.259248046875C19.506748046875,23.259248046875,18.738148046875,24.164448046875,18.738148046875,24.164448046875C18.738148046875,24.164448046875,18.739648046875,24.165748046875,18.739648046875,24.165748046875C18.739648046875,24.165748046875,19.506748046875,23.259248046875,19.506748046875,23.259248046875C19.506748046875,23.259248046875,19.506748046875,23.259248046875,19.506748046875,23.259248046875ZM21.549248046875,24.715948046875C21.549248046875,24.715948046875,20.993648046875,25.765348046875,20.993648046875,25.765348046875C20.993648046875,25.765348046875,21.049548046875,25.794948046875,21.049548046875,25.794948046875C21.049548046875,25.794948046875,21.108248046875,25.818548046875,21.108248046875,25.818548046875C21.108248046875,25.818548046875,21.549248046875,24.715948046875,21.549248046875,24.715948046875C21.549248046875,24.715948046875,21.549248046875,24.715948046875,21.549248046875,24.715948046875ZM21.834248046875,24.842548046875C21.834248046875,24.842548046875,21.366548046875,25.934148046875,21.366548046875,25.934148046875C21.366548046875,25.934148046875,21.391748046875,25.944848046875,21.391748046875,25.944848046875C21.391748046875,25.944848046875,21.417348046875,25.954348046875,21.417348046875,25.954348046875C21.417348046875,25.954348046875,21.834248046875,24.842548046875,21.834248046875,24.842548046875C21.834248046875,24.842548046875,21.834248046875,24.842548046875,21.834248046875,24.842548046875ZM22.879248046875,24.636748046875C22.879248046875,24.636748046875,22.045148046875,23.791548046875,22.045148046875,23.791548046875C22.045148046875,23.791548046875,22.039648046875,23.797148046875,22.039648046875,23.797148046875C22.039648046875,23.797148046875,22.879248046875,24.636748046875,22.879248046875,24.636748046875C22.879248046875,24.636748046875,22.879248046875,24.636748046875,22.879248046875,24.636748046875ZM24.082548046875,23.449248046875C24.082548046875,23.449248046875,24.916648046875,24.294448046875,24.916648046875,24.294448046875C24.916648046875,24.294448046875,24.922248046875,24.288848046875,24.922248046875,24.288848046875C24.922248046875,24.288848046875,24.082548046875,23.449248046875,24.082548046875,23.449248046875C24.082548046875,23.449248046875,24.082548046875,23.449248046875,24.082548046875,23.449248046875ZM25.222548046875,22.562548046875C25.222548046875,22.562548046875,25.771848046875,23.615348046875,25.771848046875,23.615348046875C25.771848046875,23.615348046875,25.806548046875,23.597248046875,25.806548046875,23.597248046875C25.806548046875,23.597248046875,25.840048046875,23.576848046875,25.840048046875,23.576848046875C25.840048046875,23.576848046875,25.222548046875,22.562548046875,25.222548046875,22.562548046875C25.222548046875,22.562548046875,25.222548046875,22.562548046875,25.222548046875,22.562548046875ZM28.420948046875,23.053448046875C28.420948046875,23.053448046875,29.108348046875,22.085248046875,29.108348046875,22.085248046875C29.108348046875,22.085248046875,29.098548046875,22.078248046875,29.098548046875,22.078248046875C29.098548046875,22.078248046875,29.088648046875,22.071448046875,29.088648046875,22.071448046875C29.088648046875,22.071448046875,28.420948046875,23.053448046875,28.420948046875,23.053448046875C28.420948046875,23.053448046875,28.420948046875,23.053448046875,28.420948046875,23.053448046875ZM33.661748046875005,26.774248046875C33.661748046875005,26.774248046875,32.974248046875005,27.742648046875,32.974248046875005,27.742648046875C32.974248046875005,27.742648046875,32.985848046875,27.750548046875,32.985848046875,27.750548046875C32.985848046875,27.750548046875,33.661748046875005,26.774248046875,33.661748046875005,26.774248046875C33.661748046875005,26.774248046875,33.661748046875005,26.774248046875,33.661748046875005,26.774248046875ZM34.532548046875,27.787548046875C34.532548046875,27.787548046875,35.635248046875,27.346648046875,35.635248046875,27.346648046875C35.635248046875,27.346648046875,35.627648046875,27.327748046875,35.627648046875,27.327748046875C35.627648046875,27.327748046875,35.619548046875,27.309248046875,35.619548046875,27.309248046875C35.619548046875,27.309248046875,34.532548046875,27.787548046875,34.532548046875,27.787548046875C34.532548046875,27.787548046875,34.532548046875,27.787548046875,34.532548046875,27.787548046875ZM33.598448046875,29.022548046875C33.598448046875,29.414448046875,33.511848046875,29.827348046875,33.316248046875,30.241248046875C33.316248046875,30.241248046875,35.463848046875,31.255548046875,35.463848046875,31.255548046875C35.806648046875,30.529448046875,35.973448046875,29.770748046875,35.973448046875,29.022548046875C35.973448046875,29.022548046875,33.598448046875,29.022548046875,33.598448046875,29.022548046875C33.598448046875,29.022548046875,33.598448046875,29.022548046875,33.598448046875,29.022548046875ZM33.316248046875,30.241248046875C33.094248046874995,30.711548046875,32.809748046875,31.150848046875,32.433548046875,31.566048046875C32.433548046875,31.566048046875,34.193248046875,33.160748046875,34.193248046875,33.160748046875C34.735448046875,32.562548046875,35.147548046875,31.925348046875,35.463848046875,31.255548046875C35.463848046875,31.255548046875,33.316248046875,30.241248046875,33.316248046875,30.241248046875C33.316248046875,30.241248046875,33.316248046875,30.241248046875,33.316248046875,30.241248046875ZM32.434048046875,31.565448046875C31.762648046875,32.305148046875004,31.050048046875,32.811848046875,30.266448046875,33.132948046875C30.266448046875,33.132948046875,31.167048046875,35.330548046875,31.167048046875,35.330548046875C32.315148046874995,34.860048046875,33.312448046875005,34.131648046875,34.192748046874996,33.161448046875C34.192748046874996,33.161448046875,32.434048046875,31.565448046875,32.434048046875,31.565448046875C32.434048046875,31.565448046875,32.434048046875,31.565448046875,32.434048046875,31.565448046875ZM30.259948046875,33.135648046875005C29.460248046875,33.468848046874996,28.586848046875,33.645948046875,27.629248046875,33.645948046875C27.629248046875,33.645948046875,27.629248046875,36.020948046875,27.629248046875,36.020948046875C28.888348046875,36.020948046875,30.073248046875,35.786248046875,31.173548046875,35.327848046875C31.173548046875,35.327848046875,30.259948046875,33.135648046875005,30.259948046875,33.135648046875005C30.259948046875,33.135648046875005,30.259948046875,33.135648046875005,30.259948046875,33.135648046875005ZM27.629248046875,33.645948046875C26.202048046875,33.645948046875,24.634648046875,33.310048046874996,22.933048046875,32.585048046875C22.933048046875,32.585048046875,22.002048046875,34.770048046875004,22.002048046875,34.770048046875004C23.942148046875,35.596748046875,25.826448046875,36.020948046875,27.629248046875,36.020948046875C27.629248046875,36.020948046875,27.629248046875,33.645948046875,27.629248046875,33.645948046875C27.629248046875,33.645948046875,27.629248046875,33.645948046875,27.629248046875,33.645948046875ZM22.933048046875,32.585048046875C21.203248046875,31.848048046875,19.460048046875,30.849548046875,17.719848046875,29.582648046875C17.719848046875,29.582648046875,16.321948046875,31.502548046875,16.321948046875,31.502548046875C18.191748046875,32.863948046874995,20.090248046875,33.955448046875,22.002048046875,34.770048046875004C22.002048046875,34.770048046875004,22.933048046875,32.585048046875,22.933048046875,32.585048046875C22.933048046875,32.585048046875,22.933048046875,32.585048046875,22.933048046875,32.585048046875ZM17.721348046875,29.583748046875C15.949448046875,28.289348046875,14.268748046875,26.855648046875,12.663198046875,25.265448046875C12.663198046875,25.265448046875,10.991958046875,26.953048046875,10.991958046875,26.953048046875C12.679798046875,28.624548046875,14.450748046875,30.135848046875,16.320448046875,31.501448046875C16.320448046875,31.501448046875,17.721348046875,29.583748046875,17.721348046875,29.583748046875C17.721348046875,29.583748046875,17.721348046875,29.583748046875,17.721348046875,29.583748046875ZM12.671328046875,25.273548046875C11.081038046875001,23.667948046875,9.647698046875,21.987548046875,8.370088046875,20.232848046875C8.370088046875,20.232848046875,6.450078046874999,21.630648046875,6.450078046874999,21.630648046875C7.800798046875,23.485948046875,9.312458046875001,25.257248046875,10.983838046875,26.944948046875C10.983838046875,26.944948046875,12.671328046875,25.273548046875,12.671328046875,25.273548046875C12.671328046875,25.273548046875,12.671328046875,25.273548046875,12.671328046875,25.273548046875ZM8.374098046875,20.238448046875C7.117558046875001,18.491448046875,6.119508046875,16.762748046875,5.3997280468749995,15.068348046875C5.3997280468749995,15.068348046875,3.213768146875,15.996848046875,3.213768146875,15.996848046875C4.013994046875,17.880748046875,5.105938046875,19.762148046875,6.446068046875,21.625048046875C6.446068046875,21.625048046875,8.374098046875,20.238448046875,8.374098046875,20.238448046875C8.374098046875,20.238448046875,8.374098046875,20.238448046875,8.374098046875,20.238448046875ZM5.401198046875,15.071748046875C4.691188046875,13.385548046875,4.354248046875,11.816478046875,4.354248046875,10.355078046875C4.354248046875,10.355078046875,1.979248046875,10.355078046875,1.979248046875,10.355078046875C1.979248046875,12.187018046875,2.402307046875,14.069648046875,3.212306046875,15.993348046875C3.212306046875,15.993348046875,5.401198046875,15.071748046875,5.401198046875,15.071748046875C5.401198046875,15.071748046875,5.401198046875,15.071748046875,5.401198046875,15.071748046875ZM4.354248046875,10.355078046875C4.354248046875,9.419138046875,4.519138046875,8.540708046875,4.839318046875,7.740268046875C4.839318046875,7.740268046875,2.6341810468749998,6.858228046875,2.6341810468749998,6.858228046875C2.194358046875,7.957788046875,1.979248046875,9.137688046874999,1.979248046875,10.355078046875C1.979248046875,10.355078046875,4.354248046875,10.355078046875,4.354248046875,10.355078046875C4.354248046875,10.355078046875,4.354248046875,10.355078046875,4.354248046875,10.355078046875ZM4.841788046875,7.734018046875C5.153928046875,6.940698046875,5.652438046875,6.198138046875,6.372478046875,5.518868046875C6.372478046875,5.518868046875,4.742698046875,3.791302046875,4.742698046875,3.791302046875C3.784394046875,4.6953580468750005,3.079573346875,5.726128046875,2.6317000468750003,6.864478046875C2.6317000468750003,6.864478046875,4.841788046875,7.734018046875,4.841788046875,7.734018046875C4.841788046875,7.734018046875,4.841788046875,7.734018046875,4.841788046875,7.734018046875ZM6.390638046875,5.501358046875C7.224718046875,4.680298046875,8.046378046874999,4.354248046875,8.850918046875,4.354248046875C8.850918046875,4.354248046875,8.850918046875,1.979248046875,8.850918046875,1.979248046875C7.312118046875,1.979248046875,5.917108046875001,2.6348670468749997,4.724528046875,3.808807046875C4.724528046875,3.808807046875,6.390638046875,5.501358046875,6.390638046875,5.501358046875C6.390638046875,5.501358046875,6.390638046875,5.501358046875,6.390638046875,5.501358046875ZM8.850918046875,4.354248046875C9.127968046875,4.354248046875,9.394218046875,4.414148046875,9.619548046875,4.5223080468750005C9.619548046875,4.5223080468750005,10.647288046875001,2.381190046875,10.647288046875001,2.381190046875C10.080938046875,2.109348046875,9.460528046875,1.979248046875,8.850918046875,1.979248046875C8.850918046875,1.979248046875,8.850918046875,4.354248046875,8.850918046875,4.354248046875C8.850918046875,4.354248046875,8.850918046875,4.354248046875,8.850918046875,4.354248046875ZM9.635788046875,4.529948046875C9.871038046875,4.638528046875,10.063448046875,4.791268046875,10.217898046875,5.0143580468749995C10.217898046875,5.0143580468749995,12.170598046875,3.662477046875,12.170598046875,3.662477046875C11.755048046875,3.062228046875,11.219118046875,2.644967046875,10.631038046875,2.373547046875C10.631038046875,2.373547046875,9.635788046875,4.529948046875,9.635788046875,4.529948046875C9.635788046875,4.529948046875,9.635788046875,4.529948046875,9.635788046875,4.529948046875ZM10.225738046875,5.0255480468750005C10.225738046875,5.0255480468750005,13.899048046875,10.203048046875,13.899048046875,10.203048046875C13.899048046875,10.203048046875,15.836048046875,8.828778046875,15.836048046875,8.828778046875C15.836048046875,8.828778046875,12.162758046875,3.651280046875,12.162758046875,3.651280046875C12.162758046875,3.651280046875,10.225738046875,5.0255480468750005,10.225738046875,5.0255480468750005C10.225738046875,5.0255480468750005,10.225738046875,5.0255480468750005,10.225738046875,5.0255480468750005ZM13.903848046875,10.209778046875C14.145848046875,10.545858046875,14.301448046875,10.828558046875,14.401848046875,11.073868046874999C14.401848046875,11.073868046874999,16.600048046875,10.174628046875,16.600048046875,10.174628046875C16.415348046875,9.723268046874999,16.159248046875,9.277638046875001,15.831248046875,8.822048046875C15.831248046875,8.822048046875,13.903848046875,10.209778046875,13.903848046875,10.209778046875C13.903848046875,10.209778046875,13.903848046875,10.209778046875,13.903848046875,10.209778046875ZM14.409448046875,11.092028046875C14.505648046875,11.316508046875,14.535048046875,11.488348046875,14.535048046875,11.590078046875C14.535048046875,11.590078046875,16.910048046874998,11.590078046875,16.910048046874998,11.590078046875C16.910048046874998,11.090148046875,16.781148046875,10.596978046875,16.592448046875,10.156468046875C16.592448046875,10.156468046875,14.409448046875,11.092028046875,14.409448046875,11.092028046875C14.409448046875,11.092028046875,14.409448046875,11.092028046875,14.409448046875,11.092028046875ZM14.535048046875,11.590078046875C14.535048046875,11.731048046875,14.495748046875,11.899668046875,14.375748046875,12.096808046875C14.375748046875,12.096808046875,16.404448046875,13.331648046875,16.404448046875,13.331648046875C16.727748046875,12.800488046875,16.910048046874998,12.209118046875,16.910048046874998,11.590078046875C16.910048046874998,11.590078046875,14.535048046875,11.590078046875,14.535048046875,11.590078046875C14.535048046875,11.590078046875,14.535048046875,11.590078046875,14.535048046875,11.590078046875ZM14.356248046875,12.129938046875C14.216748046875,12.376758046875,13.989948046875,12.672528046875,13.663748046875,12.998728046875C13.663748046875,12.998728046875,15.343148046875,14.678148046875,15.343148046875,14.678148046875C15.776948046875,14.244348046875,16.151748046875,13.780048046875,16.423848046875,13.298548046875C16.423848046875,13.298548046875,14.356248046875,12.129938046875,14.356248046875,12.129938046875C14.356248046875,12.129938046875,14.356248046875,12.129938046875,14.356248046875,12.129938046875ZM13.647648046875,13.015128046875C13.647648046875,13.015128046875,12.444308046875,14.265948046875,12.444308046875,14.265948046875C12.444308046875,14.265948046875,14.155848046875,15.912548046875,14.155848046875,15.912548046875C14.155848046875,15.912548046875,15.359148046875,14.661748046875,15.359148046875,14.661748046875C15.359148046875,14.661748046875,13.647648046875,13.015128046875,13.647648046875,13.015128046875C13.647648046875,13.015128046875,13.647648046875,13.015128046875,13.647648046875,13.015128046875ZM12.460388046875,14.249548046875C12.045148046875,14.664848046875,11.859248046875,15.181248046875,11.859248046875,15.722548046875C11.859248046875,15.722548046875,14.234248046875,15.722548046875,14.234248046875,15.722548046875C14.234248046875,15.721548046875,14.233948046875,15.758448046875,14.212048046875,15.813648046875C14.189348046875,15.871048046875,14.158148046875,15.910548046875,14.139748046875,15.928948046875C14.139748046875,15.928948046875,12.460388046875,14.249548046875,12.460388046875,14.249548046875C12.460388046875,14.249548046875,12.460388046875,14.249548046875,12.460388046875,14.249548046875ZM11.859248046875,15.722548046875C11.859248046875,15.961748046875,11.891038046875,16.170148046875,11.942198046875,16.374748046875C11.942198046875,16.374748046875,14.246248046875,15.798748046875,14.246248046875,15.798748046875C14.234148046875,15.750048046875,14.234248046875,15.736748046875,14.234248046875,15.722548046875C14.234248046875,15.722548046875,11.859248046875,15.722548046875,11.859248046875,15.722548046875C11.859248046875,15.722548046875,11.859248046875,15.722548046875,11.859248046875,15.722548046875ZM11.982348046875,16.503748046875C12.016508046875,16.594748046875,12.050818046875,16.674548046875,12.069868046875,16.719648046875C12.092968046875,16.774248046875,12.095228046875,16.781548046875002,12.094358046875,16.778948046875C12.094358046875,16.778948046875,14.347448046875,16.027848046875,14.347448046875,16.027848046875C14.314948046875,15.930248046875,14.277648046875,15.842548046875,14.257148046875,15.794248046875C14.232648046875,15.736448046875,14.219448046875,15.705448046875,14.206148046875,15.669748046875C14.206148046875,15.669748046875,11.982348046875,16.503748046875,11.982348046875,16.503748046875C11.982348046875,16.503748046875,11.982348046875,16.503748046875,11.982348046875,16.503748046875ZM12.178418046875,16.972048046875003C12.519528046875,17.597448046875,13.069218046875,18.348948046875,13.786848046875,19.197248046875C13.786848046875,19.197248046875,15.599948046875,17.663048046874998,15.599948046875,17.663048046874998C14.924248046875,16.864548046875,14.492348046875,16.254348046875002,14.263448046875,15.834748046875C14.263448046875,15.834748046875,12.178418046875,16.972048046875003,12.178418046875,16.972048046875003C12.178418046875,16.972048046875003,12.178418046875,16.972048046875003,12.178418046875,16.972048046875003ZM13.795448046875,19.207148046875C14.520048046875,20.044448046875,15.297048046875,20.902648046875,16.141548046875002,21.763448046875C16.141548046875002,21.763448046875,17.836948046875,20.100048046875,17.836948046875,20.100048046875C17.034848046875,19.282548046875,16.291748046875,18.462348046875,15.591348046875,17.653048046875C15.591348046875,17.653048046875,13.795448046875,19.207148046875,13.795448046875,19.207148046875C13.795448046875,19.207148046875,13.795448046875,19.207148046875,13.795448046875,19.207148046875ZM16.157448046875,21.779348046875C17.021948046875,22.627848046875,17.868148046875,23.425848046875,18.738148046875,24.164448046875C18.738148046875,24.164448046875,20.275248046875,22.354048046875,20.275248046875,22.354048046875C19.467048046875,21.667648046875,18.666548046875,20.914048046875,17.821048046875,20.084148046875C17.821048046875,20.084148046875,16.157448046875,21.779348046875,16.157448046875,21.779348046875C16.157448046875,21.779348046875,16.157448046875,21.779348046875,16.157448046875,21.779348046875ZM18.739648046875,24.165748046875C19.598148046875,24.892148046875,20.351648046875,25.425548046875,20.993648046875,25.765348046875C20.993648046875,25.765348046875,22.104848046875,23.666448046875,22.104848046875,23.666448046875C21.670248046875,23.436248046875,21.062048046875,23.019648046875,20.273848046875,22.352748046875C20.273848046875,22.352748046875,18.739648046875,24.165748046875,18.739648046875,24.165748046875C18.739648046875,24.165748046875,18.739648046875,24.165748046875,18.739648046875,24.165748046875ZM21.108248046875,25.818548046875C21.116348046875,25.821748046875,21.133748046875,25.829348046875,21.185048046875,25.852748046875C21.228348046875,25.872648046875,21.294648046875,25.903248046875,21.366548046875,25.934148046875C21.366548046875,25.934148046875,22.301948046875,23.751048046875,22.301948046875,23.751048046875C22.263048046875,23.734448046875,22.226448046875,23.717448046875,22.174648046875,23.693848046875C22.130948046875,23.673748046875,22.061248046875,23.641748046875,21.990248046875,23.613248046875C21.990248046875,23.613248046875,21.108248046875,25.818548046875,21.108248046875,25.818548046875C21.108248046875,25.818548046875,21.108248046875,25.818548046875,21.108248046875,25.818548046875ZM21.417348046875,25.954348046875C21.717548046875,26.066948046875,21.995548046875,26.093448046875,22.230048046875,26.093448046875C22.230048046875,26.093448046875,22.230048046875,23.718448046875,22.230048046875,23.718448046875C22.202248046875,23.718448046875,22.196548046875,23.716848046875,22.204148046875,23.717948046875C22.208248046875,23.718548046875,22.215048046875,23.719848046875,22.223748046875,23.722048046875C22.232648046875,23.724248046875,22.241948046875,23.727248046875,22.251148046875,23.730748046875C22.251148046875,23.730748046875,21.417348046875,25.954348046875,21.417348046875,25.954348046875C21.417348046875,25.954348046875,21.417348046875,25.954348046875,21.417348046875,25.954348046875ZM22.230048046875,26.093448046875C22.831148046875,26.093448046875,23.334248046875,25.861148046875,23.718848046875,25.476348046875C23.718848046875,25.476348046875,22.039648046875,23.797148046875,22.039648046875,23.797148046875C22.043448046875,23.793148046875,22.072048046875,23.766748046875,22.124948046875,23.744048046875C22.178948046875,23.721148046875,22.220448046875,23.718448046875,22.230048046875,23.718448046875C22.230048046875,23.718448046875,22.230048046875,26.093448046875,22.230048046875,26.093448046875C22.230048046875,26.093448046875,22.230048046875,26.093448046875,22.230048046875,26.093448046875ZM23.713348046875,25.481948046875C23.713348046875,25.481948046875,24.916648046875,24.294448046875,24.916648046875,24.294448046875C24.916648046875,24.294448046875,23.248448046875,22.604048046875,23.248448046875,22.604048046875C23.248448046875,22.604048046875,22.045148046875,23.791548046875,22.045148046875,23.791548046875C22.045148046875,23.791548046875,23.713348046875,25.481948046875,23.713348046875,25.481948046875C23.713348046875,25.481948046875,23.713348046875,25.481948046875,23.713348046875,25.481948046875ZM24.922248046875,24.288848046875C25.270048046875,23.941148046875,25.553348046875,23.729448046875,25.771848046875,23.615348046875C25.771848046875,23.615348046875,24.673348046875,21.509848046875,24.673348046875,21.509848046875C24.163448046875,21.775648046875,23.686748046875,22.165648046875,23.242948046875,22.609648046875C23.242948046875,22.609648046875,24.922248046875,24.288848046875,24.922248046875,24.288848046875C24.922248046875,24.288848046875,24.922248046875,24.288848046875,24.922248046875,24.288848046875ZM25.840048046875,23.576848046875C26.041448046875,23.454348046875,26.194448046875,23.417548046875,26.346748046875,23.417548046875C26.346748046875,23.417548046875,26.346748046875,21.042548046875,26.346748046875,21.042548046875C25.707348046875,21.042548046875,25.132048046875,21.227548046875,24.605048046875,21.548248046875C24.605048046875,21.548248046875,25.840048046875,23.576848046875,25.840048046875,23.576848046875C25.840048046875,23.576848046875,25.840048046875,23.576848046875,25.840048046875,23.576848046875ZM26.346748046875,23.417548046875C26.473548046875,23.417548046875,26.637748046875,23.442948046875,26.862948046875,23.535048046875C26.862948046875,23.535048046875,27.762248046875,21.336748046875,27.762248046875,21.336748046875C27.290748046875,21.143948046875,26.821548046875,21.042548046875,26.346748046875,21.042548046875C26.346748046875,21.042548046875,26.346748046875,23.417548046875,26.346748046875,23.417548046875C26.346748046875,23.417548046875,26.346748046875,23.417548046875,26.346748046875,23.417548046875ZM26.862948046875,23.535048046875C27.111648046875,23.636748046875,27.401448046875,23.796148046875,27.753248046875,24.035348046875C27.753248046875,24.035348046875,29.088648046875,22.071448046875,29.088648046875,22.071448046875C28.648748046875,21.772348046875,28.210148046875,21.520148046875,27.762248046875,21.336748046875C27.762248046875,21.336748046875,26.862948046875,23.535048046875,26.862948046875,23.535048046875C26.862948046875,23.535048046875,26.862948046875,23.535048046875,26.862948046875,23.535048046875ZM27.733448046875,24.021648046875C27.733448046875,24.021648046875,32.974248046875005,27.742448046875,32.974248046875005,27.742448046875C32.974248046875005,27.742448046875,34.349248046875005,25.806048046875,34.349248046875005,25.806048046875C34.349248046875005,25.806048046875,29.108348046875,22.085248046875,29.108348046875,22.085248046875C29.108348046875,22.085248046875,27.733448046875,24.021648046875,27.733448046875,24.021648046875C27.733448046875,24.021648046875,27.733448046875,24.021648046875,27.733448046875,24.021648046875ZM32.985848046875,27.750548046875C33.244648046875,27.929748046875,33.372448046875,28.099448046875,33.445648046875,28.265948046875C33.445648046875,28.265948046875,35.619548046875,27.309248046875,35.619548046875,27.309248046875C35.344348046875,26.683948046875,34.902148046875,26.188748046875,34.337648046875,25.797948046875C34.337648046875,25.797948046875,32.985848046875,27.750548046875,32.985848046875,27.750548046875C32.985848046875,27.750548046875,32.985848046875,27.750548046875,32.985848046875,27.750548046875ZM33.429948046875,28.228548046875C33.544848046875,28.515948046875,33.598448046875,28.761148046875,33.598448046875,29.022548046875C33.598448046875,29.022548046875,35.973448046875,29.022548046875,35.973448046875,29.022548046875C35.973448046875,28.397348046875,35.836948046875,27.850948046875,35.635248046875,27.346648046875C35.635248046875,27.346648046875,33.429948046875,28.228548046875,33.429948046875,28.228548046875C33.429948046875,28.228548046875,33.429948046875,28.228548046875,33.429948046875,28.228548046875Z" fill="#FFFFFF" fill-opacity="1"/></g><g><path d="M28.10417,14.249921953125C28.10417,14.905751953125,28.63583,15.437421953125,29.29167,15.437421953125C29.947499999999998,15.437421953125,30.47917,14.905751953125,30.47917,14.249921953125C30.47917,14.249921953125,28.10417,14.249921953125,28.10417,14.249921953125C28.10417,14.249921953125,28.10417,14.249921953125,28.10417,14.249921953125ZM27.43917,10.655751953125C27.43917,10.655751953125,26.56852,11.463311953125,26.56852,11.463311953125C26.56852,11.463311953125,26.57104,11.466001953125,26.57104,11.466001953125C26.57104,11.466001953125,27.43917,10.655751953125,27.43917,10.655751953125C27.43917,10.655751953125,27.43917,10.655751953125,27.43917,10.655751953125ZM23.75,7.520751953125C23.094161,7.520751953125,22.5625,8.052412953125,22.5625,8.708251953125C22.5625,9.364090953125,23.094161,9.895751953125,23.75,9.895751953125C23.75,9.895751953125,23.75,7.520751953125,23.75,7.520751953125C23.75,7.520751953125,23.75,7.520751953125,23.75,7.520751953125ZM30.47917,14.249921953125C30.47917,13.506031953125,30.201999999999998,12.708651953124999,29.837139999999998,11.998941953125C29.45993,11.265211953125,28.93217,10.515011953125,28.307290000000002,9.845501953125C28.307290000000002,9.845501953125,26.57104,11.466001953125,26.57104,11.466001953125C27.0545,11.983991953124999,27.45299,12.555881953125,27.72494,13.084851953125C28.00925,13.637851953125,28.10417,14.043801953125,28.10417,14.249921953125C28.10417,14.249921953125,30.47917,14.249921953125,30.47917,14.249921953125C30.47917,14.249921953125,30.47917,14.249921953125,30.47917,14.249921953125ZM28.30981,9.848201953125C27.19736,8.648836753125,25.55836,7.520751953125,23.75,7.520751953125C23.75,7.520751953125,23.75,9.895751953125,23.75,9.895751953125C24.60165,9.895751953125,25.65431,10.477671953125,26.56852,11.463301953125C26.56852,11.463301953125,28.30981,9.848201953125,28.30981,9.848201953125C28.30981,9.848201953125,28.30981,9.848201953125,28.30981,9.848201953125Z" fill="#FFFFFF" fill-opacity="1"/></g><g><path d="M33.645830000000004,14.250048046875C33.645830000000004,14.905948046875,34.1775,15.437548046875,34.8333,15.437548046875C35.4892,15.437548046875,36.0208,14.905948046875,36.0208,14.250048046875C36.0208,14.250048046875,33.645830000000004,14.250048046875,33.645830000000004,14.250048046875C33.645830000000004,14.250048046875,33.645830000000004,14.250048046875,33.645830000000004,14.250048046875ZM23.75,1.979248046875C23.094161,1.979248046875,22.5625,2.510909046875,22.5625,3.166748046875C22.5625,3.822587046875,23.094161,4.354248046875,23.75,4.354248046875C23.75,4.354248046875,23.75,1.979248046875,23.75,1.979248046875C23.75,1.979248046875,23.75,1.979248046875,23.75,1.979248046875ZM36.0208,14.250048046875C36.0208,7.466748046875,30.53333,1.979248046875,23.75,1.979248046875C23.75,1.979248046875,23.75,4.354248046875,23.75,4.354248046875C29.22167,4.354248046875,33.645830000000004,8.778418046875,33.645830000000004,14.250048046875C33.645830000000004,14.250048046875,36.0208,14.250048046875,36.0208,14.250048046875C36.0208,14.250048046875,36.0208,14.250048046875,36.0208,14.250048046875Z" fill="#FFFFFF" fill-opacity="1"/></g></g><g style="opacity:0;"></g></g></g></g></svg>