<svg xmlns="http://www.w3.org/2000/svg" xmlns:xlink="http://www.w3.org/1999/xlink" fill="none" version="1.1" width="38" height="38" viewBox="0 0 38 38"><g><g><ellipse cx="33.25" cy="6.333251953125" rx="4.75" ry="4.75" fill="#D268FC" fill-opacity="1"/></g><g><g><g><path d="M10.14306640625,28.737705078125C10.14306640625,29.393535078125,10.47885240625,29.925205078125,10.89306640625,29.925205078125C11.30728040625,29.925205078125,11.64306640625,29.393535078125,11.64306640625,28.737705078125C11.64306640625,28.737705078125,10.14306640625,28.737705078125,10.14306640625,28.737705078125C10.14306640625,28.737705078125,10.14306640625,28.737705078125,10.14306640625,28.737705078125ZM11.64306640625,25.460205078125C11.64306640625,24.804366078125,11.30728040625,24.272705078125,10.89306640625,24.272705078125C10.47885240625,24.272705078125,10.14306640625,24.804366078125,10.14306640625,25.460205078125C10.14306640625,25.460205078125,11.64306640625,25.460205078125,11.64306640625,25.460205078125C11.64306640625,25.460205078125,11.64306640625,25.460205078125,11.64306640625,25.460205078125ZM11.64306640625,28.737705078125C11.64306640625,28.737705078125,11.64306640625,25.460205078125,11.64306640625,25.460205078125C11.64306640625,25.460205078125,10.14306640625,25.460205078125,10.14306640625,25.460205078125C10.14306640625,25.460205078125,10.14306640625,28.737705078125,10.14306640625,28.737705078125C10.14306640625,28.737705078125,11.64306640625,28.737705078125,11.64306640625,28.737705078125C11.64306640625,28.737705078125,11.64306640625,28.737705078125,11.64306640625,28.737705078125Z" fill="#FFFFFF" fill-opacity="1"/><path d="M11.99712640625,29.939745078125Q12.32163640625,29.425925078125,12.32163640625,28.737705078125L12.32163640625,25.460205078125Q12.32163640625,24.771981078125002,11.99711640625,24.258165078125Q11.81658040625,23.972305078125,11.56258440625,23.802205078125Q11.25188340625,23.594135078125,10.89306640625,23.594135078125Q10.53424940625,23.594135078125,10.22354840625,23.802205078125Q9.96955240625,23.972305078125,9.78901640625,24.258165078125Q9.46449640625,24.771981078125002,9.46449640625,25.460205078125L9.46449640625,28.737705078125Q9.46449640625,29.425925078125,9.78900640625,29.939745078125Q9.96955040625,30.225595078125,10.22354640625,30.395695078125Q10.53424740625,30.603775078125,10.89306640625,30.603775078125Q11.25188540625,30.603775078125,11.56258640625,30.395695078125Q11.81658240625,30.225595078125,11.99712640625,29.939745078125ZM10.82163780625,26.138776078125L10.82163780625,28.059135078125L10.96449500625,28.059135078125L10.96449500625,26.138776078125L10.82163780625,26.138776078125Z" fill-rule="evenodd" fill="#FFFFFF" fill-opacity="1"/></g><g><path d="M18.25,28.737373046875C18.25,29.393203046875,18.585786,29.924873046875,19,29.924873046875C19.414214,29.924873046875,19.75,29.393203046875,19.75,28.737373046875C19.75,28.737373046875,18.25,28.737373046875,18.25,28.737373046875C18.25,28.737373046875,18.25,28.737373046875,18.25,28.737373046875ZM19.75,22.182373046875C19.75,21.526534046875,19.414214,20.994873046875,19,20.994873046875C18.585786,20.994873046875,18.25,21.526534046875,18.25,22.182373046875C18.25,22.182373046875,19.75,22.182373046875,19.75,22.182373046875C19.75,22.182373046875,19.75,22.182373046875,19.75,22.182373046875ZM19.75,28.737373046875C19.75,28.737373046875,19.75,22.182373046875,19.75,22.182373046875C19.75,22.182373046875,18.25,22.182373046875,18.25,22.182373046875C18.25,22.182373046875,18.25,28.737373046875,18.25,28.737373046875C18.25,28.737373046875,19.75,28.737373046875,19.75,28.737373046875C19.75,28.737373046875,19.75,28.737373046875,19.75,28.737373046875Z" fill="#FFFFFF" fill-opacity="1"/><path d="M20.10406,29.939413046875Q20.42857,29.425593046875,20.42857,28.737373046875L20.42857,22.182373046875Q20.42857,21.494149046875002,20.10405,20.980333046875Q19.923514,20.694473046875,19.669518,20.524373046875Q19.358817,20.316303046875,19,20.316303046875Q18.641183,20.316303046875,18.330482,20.524373046875Q18.076486,20.694473046875,17.89595,20.980333046875Q17.57143,21.494149046875002,17.57143,22.182373046875L17.57143,28.737373046875Q17.57143,29.425593046875,17.89594,29.939413046875Q18.076485,30.225263046875,18.33048,30.395363046874998Q18.641182,30.603443046875,19,30.603443046875Q19.358818,30.603443046875,19.66952,30.395363046874998Q19.923515,30.225263046875,20.10406,29.939413046875ZM18.9285714,22.860944046875L18.9285714,28.058803046875L19.0714286,28.058803046875L19.0714286,22.860944046875L18.9285714,22.860944046875Z" fill-rule="evenodd" fill="#FFFFFF" fill-opacity="1"/></g><g><path d="M26.35693359375,28.737246015625C26.35693359375,29.393116015625,26.69271959375,29.924716015625002,27.10693359375,29.924716015625002C27.52114759375,29.924716015625002,27.85693359375,29.393116015625,27.85693359375,28.737246015625C27.85693359375,28.737246015625,26.35693359375,28.737246015625,26.35693359375,28.737246015625C26.35693359375,28.737246015625,26.35693359375,28.737246015625,26.35693359375,28.737246015625ZM27.85693359375,18.888916015625C27.85693359375,18.233077015625,27.52114759375,17.701416015625,27.10693359375,17.701416015625C26.69271959375,17.701416015625,26.35693359375,18.233077015625,26.35693359375,18.888916015625C26.35693359375,18.888916015625,27.85693359375,18.888916015625,27.85693359375,18.888916015625C27.85693359375,18.888916015625,27.85693359375,18.888916015625,27.85693359375,18.888916015625ZM27.85693359375,28.737246015625C27.85693359375,28.737246015625,27.85693359375,18.888916015625,27.85693359375,18.888916015625C27.85693359375,18.888916015625,26.35693359375,18.888916015625,26.35693359375,18.888916015625C26.35693359375,18.888916015625,26.35693359375,28.737246015625,26.35693359375,28.737246015625C26.35693359375,28.737246015625,27.85693359375,28.737246015625,27.85693359375,28.737246015625C27.85693359375,28.737246015625,27.85693359375,28.737246015625,27.85693359375,28.737246015625Z" fill="#FFFFFF" fill-opacity="1"/><path d="M28.21099359375,29.939316015625Q28.53550359375,29.425516015625,28.53550359375,28.737246015625L28.53550359375,18.888916015625Q28.53550359375,18.200692015625002,28.21098359375,17.686876015625Q28.03044759375,17.401016015625,27.77645159375,17.230916015625Q27.46575059375,17.022846015625,27.10693359375,17.022846015625Q26.74811659375,17.022846015625,26.43741559375,17.230916015625Q26.18341959375,17.401016015625,26.00288359375,17.686876015625Q25.67836359375,18.200692015625002,25.67836359375,18.888916015625L25.67836359375,28.737246015625Q25.67836359375,29.425516015625,26.00287359375,29.939316015625Q26.18341859375,30.225116015624998,26.43741359375,30.395216015625Q26.74811559375,30.603316015624998,27.10693359375,30.603316015624998Q27.46575159375,30.603316015624998,27.77645359375,30.395216015625Q28.03044859375,30.225116015624998,28.21099359375,29.939316015625ZM27.03550499375,19.567487015625L27.03550499375,28.058676015625L27.17836219375,28.058676015625L27.17836219375,19.567487015625L27.03550499375,19.567487015625Z" fill-rule="evenodd" fill="#FFFFFF" fill-opacity="1"/></g><g><path d="M28.01036640625,10.0327493125C28.43556640625,9.5334993125,28.37576640625,8.7840093125,27.87656640625,8.3587193125C27.37716640625,7.9334253125,26.62766640625,7.9933853125,26.20246640625,8.4926413125C26.20246640625,8.4926413125,28.01036640625,10.0327493125,28.01036640625,10.0327493125C28.01036640625,10.0327493125,28.01036640625,10.0327493125,28.01036640625,10.0327493125ZM26.37806640625,10.1176953125C26.37806640625,10.1176953125,27.28026640625,10.8897553125,27.28026640625,10.8897553125C27.28026640625,10.8897553125,27.28196640625,10.8877453125,27.28196640625,10.8877453125C27.28196640625,10.8877453125,26.37806640625,10.1176953125,26.37806640625,10.1176953125C26.37806640625,10.1176953125,26.37806640625,10.1176953125,26.37806640625,10.1176953125ZM10.60576740625,18.528805312499998C9.96941340625,18.6874753125,9.58217640625,19.3319953125,9.74084640625,19.9682953125C9.89951540625,20.6046953125,10.54401140625,20.9918953125,11.18036540625,20.8332953125C11.18036540625,20.8332953125,10.60576740625,18.528805312499998,10.60576740625,18.528805312499998C10.60576740625,18.528805312499998,10.60576740625,18.528805312499998,10.60576740625,18.528805312499998ZM26.20246640625,8.4926413125C26.20246640625,8.4926413125,25.47406640625,9.3476403125,25.47406640625,9.3476403125C25.47406640625,9.3476403125,27.28196640625,10.8877453125,27.28196640625,10.8877453125C27.28196640625,10.8877453125,28.01036640625,10.0327493125,28.01036640625,10.0327493125C28.01036640625,10.0327493125,26.20246640625,8.4926413125,26.20246640625,8.4926413125C26.20246640625,8.4926413125,26.20246640625,8.4926413125,26.20246640625,8.4926413125ZM25.475766406250003,9.3456287125C21.59936640625,13.8757253125,16.39962640625,17.0841353125,10.60576740625,18.528805312499998C10.60576740625,18.528805312499998,11.18036540625,20.8332953125,11.18036540625,20.8332953125C17.45150640625,19.2695953125,23.08176640625,15.7963353125,27.28026640625,10.8897553125C27.28026640625,10.8897553125,25.475766406250003,9.3456287125,25.475766406250003,9.3456287125C25.475766406250003,9.3456287125,25.475766406250003,9.3456287125,25.475766406250003,9.3456287125Z" fill="#FFFFFF" fill-opacity="1"/></g><g><path d="M22.46728515625,8.0751953125C21.81144615625,8.0751953125,21.27978515625,8.6068563125,21.27978515625,9.2626953125C21.27978515625,9.9185343125,21.81144615625,10.4501953125,22.46728515625,10.4501953125C22.46728515625,10.4501953125,22.46728515625,8.0751953125,22.46728515625,8.0751953125C22.46728515625,8.0751953125,22.46728515625,8.0751953125,22.46728515625,8.0751953125ZM27.10645515625,9.2626953125C27.10645515625,9.2626953125,28.29395515625,9.2626953125,28.29395515625,9.2626953125C28.29395515625,8.6068563125,27.76228515625,8.0751953125,27.10645515625,8.0751953125C27.10645515625,8.0751953125,27.10645515625,9.2626953125,27.10645515625,9.2626953125C27.10645515625,9.2626953125,27.10645515625,9.2626953125,27.10645515625,9.2626953125ZM25.91895515625,13.8860253125C25.91895515625,14.5418653125,26.45061515625,15.0735253125,27.10645515625,15.0735253125C27.76228515625,15.0735253125,28.29395515625,14.5418653125,28.29395515625,13.8860253125C28.29395515625,13.8860253125,25.91895515625,13.8860253125,25.91895515625,13.8860253125C25.91895515625,13.8860253125,25.91895515625,13.8860253125,25.91895515625,13.8860253125ZM22.46728515625,10.4501953125C22.46728515625,10.4501953125,27.10645515625,10.4501953125,27.10645515625,10.4501953125C27.10645515625,10.4501953125,27.10645515625,8.0751953125,27.10645515625,8.0751953125C27.10645515625,8.0751953125,22.46728515625,8.0751953125,22.46728515625,8.0751953125C22.46728515625,8.0751953125,22.46728515625,10.4501953125,22.46728515625,10.4501953125C22.46728515625,10.4501953125,22.46728515625,10.4501953125,22.46728515625,10.4501953125ZM25.91895515625,9.2626953125C25.91895515625,9.2626953125,25.91895515625,13.8860253125,25.91895515625,13.8860253125C25.91895515625,13.8860253125,28.29395515625,13.8860253125,28.29395515625,13.8860253125C28.29395515625,13.8860253125,28.29395515625,9.2626953125,28.29395515625,9.2626953125C28.29395515625,9.2626953125,25.91895515625,9.2626953125,25.91895515625,9.2626953125C25.91895515625,9.2626953125,25.91895515625,9.2626953125,25.91895515625,9.2626953125Z" fill="#FFFFFF" fill-opacity="1"/></g><g><path d="M14.250048046875,36.020948046875C14.250048046875,36.020948046875,23.750048046875,36.020948046875,23.750048046875,36.020948046875C23.750048046875,36.020948046875,23.750048046875,33.645948046875,23.750048046875,33.645948046875C23.750048046875,33.645948046875,14.250048046875,33.645948046875,14.250048046875,33.645948046875C14.250048046875,33.645948046875,14.250048046875,36.020948046875,14.250048046875,36.020948046875C14.250048046875,36.020948046875,14.250048046875,36.020948046875,14.250048046875,36.020948046875ZM23.750048046875,36.020948046875C27.825548046875,36.020948046875,30.987348046875,35.213048046875,33.100148046875,33.100148046875C35.213048046875,30.987348046875,36.020948046875,27.825548046875,36.020948046875,23.750048046875C36.020948046875,23.750048046875,33.645948046875,23.750048046875,33.645948046875,23.750048046875C33.645948046875,27.591248046875,32.870348046875,29.971148046875,31.420848046875,31.420848046875C29.971148046875,32.870348046875,27.591248046875,33.645948046875,23.750048046875,33.645948046875C23.750048046875,33.645948046875,23.750048046875,36.020948046875,23.750048046875,36.020948046875C23.750048046875,36.020948046875,23.750048046875,36.020948046875,23.750048046875,36.020948046875ZM36.020948046875,23.750048046875C36.020948046875,23.750048046875,36.020948046875,14.250048046875,36.020948046875,14.250048046875C36.020948046875,14.250048046875,33.645948046875,14.250048046875,33.645948046875,14.250048046875C33.645948046875,14.250048046875,33.645948046875,23.750048046875,33.645948046875,23.750048046875C33.645948046875,23.750048046875,36.020948046875,23.750048046875,36.020948046875,23.750048046875C36.020948046875,23.750048046875,36.020948046875,23.750048046875,36.020948046875,23.750048046875ZM36.020948046875,14.250048046875C36.020948046875,10.174628046875,35.213048046875,7.012888046875,33.100148046875,4.899978046875C30.987348046875,2.787066046875,27.825548046875,1.979248046875,23.750048046875,1.979248046875C23.750048046875,1.979248046875,23.750048046875,4.354248046875,23.750048046875,4.354248046875C27.591248046875,4.354248046875,29.971148046875,5.129768046875,31.420848046875,6.579358046875C32.870348046875,8.028938046875,33.645948046875,10.408868046875,33.645948046875,14.250048046875C33.645948046875,14.250048046875,36.020948046875,14.250048046875,36.020948046875,14.250048046875C36.020948046875,14.250048046875,36.020948046875,14.250048046875,36.020948046875,14.250048046875ZM23.750048046875,1.979248046875C23.750048046875,1.979248046875,14.250048046875,1.979248046875,14.250048046875,1.979248046875C14.250048046875,1.979248046875,14.250048046875,4.354248046875,14.250048046875,4.354248046875C14.250048046875,4.354248046875,23.750048046875,4.354248046875,23.750048046875,4.354248046875C23.750048046875,4.354248046875,23.750048046875,1.979248046875,23.750048046875,1.979248046875C23.750048046875,1.979248046875,23.750048046875,1.979248046875,23.750048046875,1.979248046875ZM14.250048046875,1.979248046875C10.174628046875,1.979248046875,7.012888046875,2.787066046875,4.899978046875,4.899978046875C2.787066046875,7.012888046875,1.979248046875,10.174628046875,1.979248046875,14.250048046875C1.979248046875,14.250048046875,4.354248046875,14.250048046875,4.354248046875,14.250048046875C4.354248046875,10.408868046875,5.129768046875,8.028938046875,6.579358046875,6.579358046875C8.028938046875,5.129768046875,10.408868046875,4.354248046875,14.250048046875,4.354248046875C14.250048046875,4.354248046875,14.250048046875,1.979248046875,14.250048046875,1.979248046875C14.250048046875,1.979248046875,14.250048046875,1.979248046875,14.250048046875,1.979248046875ZM1.979248046875,14.250048046875C1.979248046875,14.250048046875,1.979248046875,23.750048046875,1.979248046875,23.750048046875C1.979248046875,23.750048046875,4.354248046875,23.750048046875,4.354248046875,23.750048046875C4.354248046875,23.750048046875,4.354248046875,14.250048046875,4.354248046875,14.250048046875C4.354248046875,14.250048046875,1.979248046875,14.250048046875,1.979248046875,14.250048046875C1.979248046875,14.250048046875,1.979248046875,14.250048046875,1.979248046875,14.250048046875ZM1.979248046875,23.750048046875C1.979248046875,27.825548046875,2.787066046875,30.987348046875,4.899978046875,33.100148046875C7.012888046875,35.213048046875,10.174628046875,36.020948046875,14.250048046875,36.020948046875C14.250048046875,36.020948046875,14.250048046875,33.645948046875,14.250048046875,33.645948046875C10.408868046875,33.645948046875,8.028938046875,32.870348046875,6.579358046875,31.420848046875C5.129768046875,29.971148046875,4.354248046875,27.591248046875,4.354248046875,23.750048046875C4.354248046875,23.750048046875,1.979248046875,23.750048046875,1.979248046875,23.750048046875C1.979248046875,23.750048046875,1.979248046875,23.750048046875,1.979248046875,23.750048046875Z" fill="#FFFFFF" fill-opacity="1"/></g><g style="opacity:0;"></g></g></g></g></svg>