<svg xmlns="http://www.w3.org/2000/svg" xmlns:xlink="http://www.w3.org/1999/xlink" fill="none" version="1.1" width="40" height="40" viewBox="0 0 40 40"><g><g><path d="M40,20Q40,20.491,39.9759,20.9814Q39.9518,21.4717,39.9037,21.9603Q39.8556,22.4489,39.7835,22.9346Q39.7115,23.4203,39.6157,23.9018Q39.5199,24.3833,39.4006,24.8596Q39.2813,25.3359,39.1388,25.8057Q38.9963,26.2755,38.8309,26.7378Q38.6655,27.2001,38.4776,27.6537Q38.2897,28.1073,38.0798,28.5511Q37.8699,28.9949,37.6384,29.4279Q37.407,29.8609,37.1546,30.2821Q36.9022,30.7032,36.6294,31.1114Q36.3566,31.5196,36.0642,31.914Q35.7717,32.3083,35.4602,32.6879Q35.1487,33.0674,34.819,33.4312Q34.4893,33.795,34.1421,34.1421Q33.795,34.4893,33.4312,34.819Q33.0674,35.1487,32.6879,35.4602Q32.3083,35.7717,31.914,36.0641Q31.5196,36.3566,31.1114,36.6294Q30.7032,36.9022,30.2821,37.1546Q29.8609,37.407,29.4279,37.6384Q28.9949,37.8699,28.5511,38.0798Q28.1073,38.2897,27.6537,38.4776Q27.2001,38.6655,26.7378,38.8309Q26.2755,38.9963,25.8057,39.1388Q25.3359,39.2813,24.8596,39.4006Q24.3833,39.5199,23.9018,39.6157Q23.4203,39.7115,22.9346,39.7835Q22.449,39.8556,21.9603,39.9037Q21.4717,39.9518,20.9814,39.9759Q20.491,40,20,40Q19.509,40,19.0186,39.9759Q18.5283,39.9518,18.0397,39.9037Q17.5511,39.8556,17.0654,39.7835Q16.5797,39.7115,16.0982,39.6157Q15.6167,39.5199,15.1404,39.4006Q14.6641,39.2813,14.1943,39.1388Q13.7245,38.9963,13.2622,38.8309Q12.7999,38.6655,12.3463,38.4776Q11.8927,38.2897,11.4489,38.0798Q11.0051,37.8699,10.5721,37.6384Q10.1391,37.407,9.71795,37.1546Q9.29682,36.9022,8.88859,36.6294Q8.48037,36.3566,8.08601,36.0641Q7.69166,35.7717,7.31213,35.4602Q6.93261,35.1487,6.56882,34.819Q6.20503,34.4893,5.85786,34.1421Q5.51069,33.795,5.18098,33.4312Q4.85126,33.0674,4.53979,32.6879Q4.22832,32.3083,3.93585,31.914Q3.64338,31.5196,3.37061,31.1114Q3.09784,30.7032,2.84543,30.2821Q2.59302,29.8609,2.36157,29.4279Q2.13013,28.9949,1.92021,28.5511Q1.7103,28.1073,1.52241,27.6537Q1.33452,27.2001,1.16912,26.7378Q1.00371,26.2755,0.861193,25.8057Q0.718671,25.3359,0.599375,24.8596Q0.480078,24.3833,0.384294,23.9018Q0.28851,23.4203,0.21647,22.9346Q0.144429,22.4489,0.0963055,21.9603Q0.0481817,21.4717,0.0240909,20.9814Q0,20.491,0,20Q0,19.509,0.0240909,19.0186Q0.0481817,18.5283,0.0963055,18.0397Q0.144429,17.551,0.21647,17.0654Q0.28851,16.5797,0.384294,16.0982Q0.480078,15.6167,0.599375,15.1404Q0.718671,14.6641,0.861193,14.1943Q1.00372,13.7245,1.16912,13.2622Q1.33452,12.7999,1.52241,12.3463Q1.7103,11.8927,1.92021,11.4489Q2.13013,11.0051,2.36157,10.5721Q2.59302,10.1391,2.84543,9.71794Q3.09784,9.29682,3.37061,8.88859Q3.64338,8.48036,3.93585,8.08601Q4.22832,7.69166,4.53979,7.31213Q4.85126,6.93261,5.18098,6.56882Q5.51069,6.20503,5.85786,5.85786Q6.20503,5.51069,6.56882,5.18098Q6.93261,4.85126,7.31213,4.53979Q7.69166,4.22832,8.08601,3.93585Q8.48037,3.64338,8.88859,3.37061Q9.29682,3.09784,9.71795,2.84543Q10.1391,2.59302,10.5721,2.36157Q11.0051,2.13013,11.4489,1.92021Q11.8927,1.7103,12.3463,1.52241Q12.7999,1.33452,13.2622,1.16912Q13.7245,1.00371,14.1943,0.861193Q14.6641,0.718671,15.1404,0.599375Q15.6167,0.480078,16.0982,0.384294Q16.5797,0.28851,17.0654,0.21647Q17.5511,0.144429,18.0397,0.0963055Q18.5283,0.0481817,19.0186,0.0240909Q19.509,0,20,0Q20.491,0,20.9814,0.0240909Q21.4717,0.0481817,21.9603,0.0963055Q22.449,0.144429,22.9346,0.21647Q23.4203,0.28851,23.9018,0.384294Q24.3833,0.480078,24.8596,0.599375Q25.3359,0.718671,25.8057,0.861193Q26.2755,1.00371,26.7378,1.16912Q27.2001,1.33452,27.6537,1.52241Q28.1073,1.7103,28.5511,1.92021Q28.9949,2.13013,29.4279,2.36157Q29.8609,2.59302,30.2821,2.84543Q30.7032,3.09784,31.1114,3.37061Q31.5196,3.64338,31.914,3.93585Q32.3083,4.22832,32.6879,4.53979Q33.0674,4.85126,33.4312,5.18098Q33.795,5.51069,34.1421,5.85786Q34.4893,6.20503,34.819,6.56882Q35.1487,6.93261,35.4602,7.31213Q35.7717,7.69166,36.0642,8.08601Q36.3566,8.48036,36.6294,8.88859Q36.9022,9.29682,37.1546,9.71794Q37.407,10.1391,37.6384,10.5721Q37.8699,11.0051,38.0798,11.4489Q38.2897,11.8927,38.4776,12.3463Q38.6655,12.7999,38.8309,13.2622Q38.9963,13.7245,39.1388,14.1943Q39.2813,14.6641,39.4006,15.1404Q39.5199,15.6167,39.6157,16.0982Q39.7115,16.5797,39.7835,17.0654Q39.8556,17.551,39.9037,18.0397Q39.9518,18.5283,39.9759,19.0186Q40,19.509,40,20Z" fill="#FF060A" fill-opacity="1" style="mix-blend-mode:passthrough"/></g><g><path d="M31.367875549316405,16.416100119628908C30.215875549316408,15.392100119628907,28.615875549316407,13.832100119628906,27.319875549316407,12.728100119628905L27.239875549316405,12.680100119628907C27.111875549316405,12.584100119628907,26.967875549316407,12.504100119628905,26.815875549316406,12.448100119628906C23.679875549316407,11.888100119628906,9.087875549316406,9.272102319628907,8.807876549316406,9.304100036628906C8.727874549316406,9.312103269628906,8.647876549316406,9.344100919628906,8.583873549316406,9.384101819628906L8.511875549316406,9.440102119628905C8.423873549316406,9.528099119628907,8.351875349316407,9.632103119628907,8.311874349316406,9.752098119628906L8.295875549316406,9.800102119628907L8.295875549316406,10.064102119628906L8.295875549316406,10.104103119628906C9.935875549316407,14.488100119628907,16.423875549316406,28.840110119628907,17.703875549316408,32.216010119628905C17.783875549316406,32.448010119628904,17.927875549316404,32.880010119628906,18.199875549316406,32.90401011962891L18.263875549316406,32.90401011962891Q18.407875549316408,32.90401011962891,19.031875549316407,32.112010119628906Q30.175875549316405,19.168100119628907,31.303875549316405,17.792100119628905C31.447875549316407,17.624100119628906,31.575875549316407,17.44010011962891,31.687875549316406,17.248100119628905C31.719875549316406,17.096100119628908,31.703875549316408,16.944100119628906,31.647875549316407,16.800100119628908C31.591875549316406,16.656100119628906,31.487875549316406,16.520100119628907,31.367875549316405,16.416100119628908ZM21.879875549316406,17.92810011962891L26.631875549316405,14.152100119628907L29.423875549316406,16.616100119628907L21.879875549316406,17.92810011962891ZM20.031875549316407,17.680100119628904L11.847875549316406,11.248100119628907L25.095875549316407,13.592100119628906L20.031875549316407,17.680100119628904ZM20.767875549316408,19.360110119628906L29.143875549316405,18.064100119628904L19.567875549316405,29.128110119628907L20.767875549316408,19.360110119628906ZM10.735875549316406,11.896100119628906L19.351875549316404,18.896100119628905L18.103875549316406,29.136110119628906L10.735875549316406,11.896100119628906Z" fill="#FFFFFF" fill-opacity="1" style="mix-blend-mode:passthrough"/></g></g></svg>