<svg xmlns="http://www.w3.org/2000/svg" xmlns:xlink="http://www.w3.org/1999/xlink" fill="none" version="1.1" width="38" height="38" viewBox="0 0 38 38"><g><g><ellipse cx="7.916721820831299" cy="30.083276748657227" rx="4.75" ry="4.75" fill="#D268FC" fill-opacity="1"/></g><g><g><g><path d="M16.229248046875,21.770946953124998C16.229248046875,21.115106953125,15.697587046875,20.583446953124998,15.041748046875,20.583446953124998C14.385909046875,20.583446953124998,13.854248046875,21.115106953125,13.854248046875,21.770946953124998C13.854248046875,21.770946953124998,16.229248046875,21.770946953124998,16.229248046875,21.770946953124998C16.229248046875,21.770946953124998,16.229248046875,21.770946953124998,16.229248046875,21.770946953124998ZM21.390928046875,19.823456953125C21.390928046875,19.823456953125,21.789138046875,18.704696953125,21.789138046875,18.704696953125C21.789138046875,18.704696953125,21.782058046875,18.702226953125,21.782058046875,18.702226953125C21.782058046875,18.702226953125,21.390928046875,19.823456953125,21.390928046875,19.823456953125C21.390928046875,19.823456953125,21.390928046875,19.823456953125,21.390928046875,19.823456953125ZM16.625078046875,18.160956953125C16.625078046875,18.160956953125,16.226878046875,19.279726953125,16.226878046875,19.279726953125C16.226878046875,19.279726953125,16.233948046875,19.282196953125002,16.233948046875,19.282196953125002C16.233948046875,19.282196953125002,16.625078046875,18.160956953125,16.625078046875,18.160956953125C16.625078046875,18.160956953125,16.625078046875,18.160956953125,16.625078046875,18.160956953125ZM21.786768046875,16.213456953125C21.786768046875,16.869296953125,22.318428046875,17.400956953125,22.974268046875,17.400956953125C23.630098046875,17.400956953125,24.161768046875,16.869296953125,24.161768046875,16.213456953125C24.161768046875,16.213456953125,21.786768046875,16.213456953125,21.786768046875,16.213456953125C21.786768046875,16.213456953125,21.786768046875,16.213456953125,21.786768046875,16.213456953125ZM13.854248046875,21.770946953124998C13.854248046875,23.912326953125,15.524248046875,25.729326953125,17.685928046875,25.729326953125C17.685928046875,25.729326953125,17.685928046875,23.354276953125,17.685928046875,23.354276953125C16.934288046875,23.354276953125,16.229248046875,22.701226953125,16.229248046875,21.770946953124998C16.229248046875,21.770946953124998,13.854248046875,21.770946953124998,13.854248046875,21.770946953124998C13.854248046875,21.770946953124998,13.854248046875,21.770946953124998,13.854248046875,21.770946953124998ZM17.685928046875,25.729326953125C17.685928046875,25.729326953125,20.662568046875002,25.729326953125,20.662568046875002,25.729326953125C20.662568046875002,25.729326953125,20.662568046875002,23.354276953125,20.662568046875002,23.354276953125C20.662568046875002,23.354276953125,17.685928046875,23.354276953125,17.685928046875,23.354276953125C17.685928046875,23.354276953125,17.685928046875,25.729326953125,17.685928046875,25.729326953125C17.685928046875,25.729326953125,17.685928046875,25.729326953125,17.685928046875,25.729326953125ZM20.662568046875002,25.729326953125C22.641448046875,25.729326953125,24.145918046875,24.063126953125,24.145918046875,22.119296953125C24.145918046875,22.119296953125,21.770918046875,22.119296953125,21.770918046875,22.119296953125C21.770918046875,22.867136953124998,21.216998046875,23.354276953125,20.662568046875002,23.354276953125C20.662568046875002,23.354276953125,20.662568046875002,25.729326953125,20.662568046875002,25.729326953125C20.662568046875002,25.729326953125,20.662568046875002,25.729326953125,20.662568046875002,25.729326953125ZM24.145918046875,22.119296953125C24.145918046875,21.225756953125,23.947708046875,20.448256953125,23.460928046875,19.824886953125C22.984678046875,19.214996953125,22.347108046875,18.903306953125,21.789118046875,18.704706953125C21.789118046875,18.704706953125,20.992738046875,20.942206953125,20.992738046875,20.942206953125C21.368918046875,21.076096953125,21.515078046875,21.191906953125,21.589038046875,21.286616953124998C21.652448046875,21.367826953125,21.770918046875,21.571986953125,21.770918046875,22.119296953125C21.770918046875,22.119296953125,24.145918046875,22.119296953125,24.145918046875,22.119296953125C24.145918046875,22.119296953125,24.145918046875,22.119296953125,24.145918046875,22.119296953125ZM21.782058046875,18.702226953125C21.782058046875,18.702226953125,17.016208046875,17.039726953125,17.016208046875,17.039726953125C17.016208046875,17.039726953125,16.233948046875,19.282196953125002,16.233948046875,19.282196953125002C16.233948046875,19.282196953125002,20.999798046875,20.944696953125,20.999798046875,20.944696953125C20.999798046875,20.944696953125,21.782058046875,18.702226953125,21.782058046875,18.702226953125C21.782058046875,18.702226953125,21.782058046875,18.702226953125,21.782058046875,18.702226953125ZM17.023278046875,17.042206953125C16.639588046875,16.905626953125,16.496428046875,16.792166953125,16.424968046875,16.701176953125C16.364898046875,16.624686953125,16.245098046875,16.423366953125,16.245098046875,15.865126953125C16.245098046875,15.865126953125,13.870098046875,15.865126953125,13.870098046875,15.865126953125C13.870098046875,16.763556953125,14.066959046875,17.543906953125,14.557087046875,18.168016953125C15.035827806875,18.777656953125,15.676410046875,19.083776953125,16.226878046875,19.279696953125C16.226878046875,19.279696953125,17.023278046875,17.042206953125,17.023278046875,17.042206953125C17.023278046875,17.042206953125,17.023278046875,17.042206953125,17.023278046875,17.042206953125ZM16.245098046875,15.865126953125C16.245098046875,15.127906953125,16.803898046875,14.630126953125,17.353398046875,14.630126953125C17.353398046875,14.630126953125,17.353398046875,12.255126953125,17.353398046875,12.255126953125C15.369566046875,12.255126953125,13.870098046875,13.942343953125,13.870098046875,15.865126953125C13.870098046875,15.865126953125,16.245098046875,15.865126953125,16.245098046875,15.865126953125C16.245098046875,15.865126953125,16.245098046875,15.865126953125,16.245098046875,15.865126953125ZM17.353398046875,14.630126953125C17.353398046875,14.630126953125,20.330078046875002,14.630126953125,20.330078046875002,14.630126953125C20.330078046875002,14.630126953125,20.330078046875002,12.255126953125,20.330078046875002,12.255126953125C20.330078046875002,12.255126953125,17.353398046875,12.255126953125,17.353398046875,12.255126953125C17.353398046875,12.255126953125,17.353398046875,14.630126953125,17.353398046875,14.630126953125C17.353398046875,14.630126953125,17.353398046875,14.630126953125,17.353398046875,14.630126953125ZM20.330078046875002,14.630126953125C21.081718046875,14.630126953125,21.786768046875,15.283176953125,21.786768046875,16.213456953125C21.786768046875,16.213456953125,24.161768046875,16.213456953125,24.161768046875,16.213456953125C24.161768046875,14.072075953125,22.491758046875,12.255126953125,20.330078046875002,12.255126953125C20.330078046875002,12.255126953125,20.330078046875002,14.630126953125,20.330078046875002,14.630126953125C20.330078046875002,14.630126953125,20.330078046875002,14.630126953125,20.330078046875002,14.630126953125Z" fill="#FFFFFF" fill-opacity="1"/></g><g><path d="M19.75,11.875C19.75,11.219161,19.414214,10.6875,19,10.6875C18.585786,10.6875,18.25,11.219161,18.25,11.875C18.25,11.875,19.75,11.875,19.75,11.875C19.75,11.875,19.75,11.875,19.75,11.875ZM18.25,26.125C18.25,26.7808,18.585786,27.3125,19,27.3125C19.414214,27.3125,19.75,26.7808,19.75,26.125C19.75,26.125,18.25,26.125,18.25,26.125C18.25,26.125,18.25,26.125,18.25,26.125ZM18.25,11.875C18.25,11.875,18.25,26.125,18.25,26.125C18.25,26.125,19.75,26.125,19.75,26.125C19.75,26.125,19.75,11.875,19.75,11.875C19.75,11.875,18.25,11.875,18.25,11.875C18.25,11.875,18.25,11.875,18.25,11.875Z" fill="#FFFFFF" fill-opacity="1"/></g></g><g><path d="M36.020948046875,19.000048046875C36.020948046875,18.344248046875002,35.489248046875,17.812548046875,34.833448046875,17.812548046875C34.177548046875,17.812548046875,33.645948046875,18.344248046875002,33.645948046875,19.000048046875C33.645948046875,19.000048046875,36.020948046875,19.000048046875,36.020948046875,19.000048046875C36.020948046875,19.000048046875,36.020948046875,19.000048046875,36.020948046875,19.000048046875ZM19.000048046875,4.354248046875C19.655848046875,4.354248046875,20.187548046875,3.822587046875,20.187548046875,3.166748046875C20.187548046875,2.510909046875,19.655848046875,1.979248046875,19.000048046875,1.979248046875C19.000048046875,1.979248046875,19.000048046875,4.354248046875,19.000048046875,4.354248046875C19.000048046875,4.354248046875,19.000048046875,4.354248046875,19.000048046875,4.354248046875ZM33.645948046875,19.000048046875C33.645948046875,27.084248046875,27.084248046875,33.645948046875,19.000048046875,33.645948046875C19.000048046875,33.645948046875,19.000048046875,36.020948046875,19.000048046875,36.020948046875C28.395848046875,36.020948046875,36.020948046875,28.395848046875,36.020948046875,19.000048046875C36.020948046875,19.000048046875,33.645948046875,19.000048046875,33.645948046875,19.000048046875C33.645948046875,19.000048046875,33.645948046875,19.000048046875,33.645948046875,19.000048046875ZM19.000048046875,33.645948046875C10.915918046875,33.645948046875,4.354248046875,27.084248046875,4.354248046875,19.000048046875C4.354248046875,19.000048046875,1.979248046875,19.000048046875,1.979248046875,19.000048046875C1.979248046875,28.395848046875,9.604248046875,36.020948046875,19.000048046875,36.020948046875C19.000048046875,36.020948046875,19.000048046875,33.645948046875,19.000048046875,33.645948046875C19.000048046875,33.645948046875,19.000048046875,33.645948046875,19.000048046875,33.645948046875ZM4.354248046875,19.000048046875C4.354248046875,10.915918046875,10.915918046875,4.354248046875,19.000048046875,4.354248046875C19.000048046875,4.354248046875,19.000048046875,1.979248046875,19.000048046875,1.979248046875C9.604248046875,1.979248046875,1.979248046875,9.604248046875,1.979248046875,19.000048046875C1.979248046875,19.000048046875,4.354248046875,19.000048046875,4.354248046875,19.000048046875C4.354248046875,19.000048046875,4.354248046875,19.000048046875,4.354248046875,19.000048046875Z" fill="#FFFFFF" fill-opacity="1"/></g><g><path d="M33.645830000000004,9.500078046875C33.645830000000004,10.155918046875,34.1775,10.687578046875,34.833330000000004,10.687578046875C35.48917,10.687578046875,36.020830000000004,10.155918046875,36.020830000000004,9.500078046875C36.020830000000004,9.500078046875,33.645830000000004,9.500078046875,33.645830000000004,9.500078046875C33.645830000000004,9.500078046875,33.645830000000004,9.500078046875,33.645830000000004,9.500078046875ZM34.833330000000004,3.166748046875C34.833330000000004,3.166748046875,36.020830000000004,3.166748046875,36.020830000000004,3.166748046875C36.020830000000004,2.510909046875,35.48917,1.979248046875,34.833330000000004,1.979248046875C34.833330000000004,1.979248046875,34.833330000000004,3.166748046875,34.833330000000004,3.166748046875C34.833330000000004,3.166748046875,34.833330000000004,3.166748046875,34.833330000000004,3.166748046875ZM28.5,1.979248046875C27.844161,1.979248046875,27.3125,2.510909046875,27.3125,3.166748046875C27.3125,3.822587046875,27.844161,4.354248046875,28.5,4.354248046875C28.5,4.354248046875,28.5,1.979248046875,28.5,1.979248046875C28.5,1.979248046875,28.5,1.979248046875,28.5,1.979248046875ZM36.020830000000004,9.500078046875C36.020830000000004,9.500078046875,36.020830000000004,3.166748046875,36.020830000000004,3.166748046875C36.020830000000004,3.166748046875,33.645830000000004,3.166748046875,33.645830000000004,3.166748046875C33.645830000000004,3.166748046875,33.645830000000004,9.500078046875,33.645830000000004,9.500078046875C33.645830000000004,9.500078046875,36.020830000000004,9.500078046875,36.020830000000004,9.500078046875C36.020830000000004,9.500078046875,36.020830000000004,9.500078046875,36.020830000000004,9.500078046875ZM34.833330000000004,1.979248046875C34.833330000000004,1.979248046875,28.5,1.979248046875,28.5,1.979248046875C28.5,1.979248046875,28.5,4.354248046875,28.5,4.354248046875C28.5,4.354248046875,34.833330000000004,4.354248046875,34.833330000000004,4.354248046875C34.833330000000004,4.354248046875,34.833330000000004,1.979248046875,34.833330000000004,1.979248046875C34.833330000000004,1.979248046875,34.833330000000004,1.979248046875,34.833330000000004,1.979248046875Z" fill="#FFFFFF" fill-opacity="1"/></g><g><path d="M26.077059046875,10.243728046874999C25.613308046875,10.707468046875,25.613308046875,11.459358046875,26.077059046875,11.923108046875C26.540806046875,12.386848046875,27.292690046875,12.386848046875,27.756437046875,11.923108046875C27.756437046875,11.923108046875,26.077059046875,10.243728046874999,26.077059046875,10.243728046874999C26.077059046875,10.243728046874999,26.077059046875,10.243728046874999,26.077059046875,10.243728046874999ZM35.673108046875,4.006437046875C36.136848046875,3.542690046875,36.136848046875,2.790806046875,35.673108046875,2.327059046875C35.209358046874996,1.863308046875,34.457468046875,1.863308046875,33.993728046875,2.327059046875C33.993728046875,2.327059046875,35.673108046875,4.006437046875,35.673108046875,4.006437046875C35.673108046875,4.006437046875,35.673108046875,4.006437046875,35.673108046875,4.006437046875ZM27.756437046875,11.923108046875C27.756437046875,11.923108046875,35.673108046875,4.006437046875,35.673108046875,4.006437046875C35.673108046875,4.006437046875,33.993728046875,2.327059046875,33.993728046875,2.327059046875C33.993728046875,2.327059046875,26.077059046875,10.243728046874999,26.077059046875,10.243728046874999C26.077059046875,10.243728046874999,27.756437046875,11.923108046875,27.756437046875,11.923108046875C27.756437046875,11.923108046875,27.756437046875,11.923108046875,27.756437046875,11.923108046875Z" fill="#FFFFFF" fill-opacity="1"/></g><g style="opacity:0;"></g></g></g></svg>